%TF.GenerationSoftware,KiCad,Pcbnew,7.0.11-2.fc38*%
%TF.CreationDate,2024-04-24T16:28:47+02:00*%
%TF.ProjectId,lr_40,6c725f34-302e-46b6-9963-61645f706362,rev?*%
%TF.SameCoordinates,Original*%
%TF.FileFunction,AssemblyDrawing,Top*%
%FSLAX46Y46*%
G04 Gerber Fmt 4.6, Leading zero omitted, Abs format (unit mm)*
G04 Created by KiCad (PCBNEW 7.0.11-2.fc38) date 2024-04-24 16:28:47*
%MOMM*%
%LPD*%
G01*
G04 APERTURE LIST*
%ADD10C,0.060000*%
%ADD11C,0.075000*%
%ADD12C,0.150000*%
%ADD13C,0.050000*%
%ADD14C,0.100000*%
G04 APERTURE END LIST*
D10*
X95681927Y-64182737D02*
X95281927Y-64182737D01*
X95281927Y-64182737D02*
X95281927Y-64087499D01*
X95281927Y-64087499D02*
X95300975Y-64030356D01*
X95300975Y-64030356D02*
X95339070Y-63992261D01*
X95339070Y-63992261D02*
X95377165Y-63973214D01*
X95377165Y-63973214D02*
X95453356Y-63954166D01*
X95453356Y-63954166D02*
X95510499Y-63954166D01*
X95510499Y-63954166D02*
X95586689Y-63973214D01*
X95586689Y-63973214D02*
X95624784Y-63992261D01*
X95624784Y-63992261D02*
X95662880Y-64030356D01*
X95662880Y-64030356D02*
X95681927Y-64087499D01*
X95681927Y-64087499D02*
X95681927Y-64182737D01*
X95320022Y-63801785D02*
X95300975Y-63782737D01*
X95300975Y-63782737D02*
X95281927Y-63744642D01*
X95281927Y-63744642D02*
X95281927Y-63649404D01*
X95281927Y-63649404D02*
X95300975Y-63611309D01*
X95300975Y-63611309D02*
X95320022Y-63592261D01*
X95320022Y-63592261D02*
X95358118Y-63573214D01*
X95358118Y-63573214D02*
X95396213Y-63573214D01*
X95396213Y-63573214D02*
X95453356Y-63592261D01*
X95453356Y-63592261D02*
X95681927Y-63820833D01*
X95681927Y-63820833D02*
X95681927Y-63573214D01*
X92233333Y-51243832D02*
X92214285Y-51262880D01*
X92214285Y-51262880D02*
X92157143Y-51281927D01*
X92157143Y-51281927D02*
X92119047Y-51281927D01*
X92119047Y-51281927D02*
X92061904Y-51262880D01*
X92061904Y-51262880D02*
X92023809Y-51224784D01*
X92023809Y-51224784D02*
X92004762Y-51186689D01*
X92004762Y-51186689D02*
X91985714Y-51110499D01*
X91985714Y-51110499D02*
X91985714Y-51053356D01*
X91985714Y-51053356D02*
X92004762Y-50977165D01*
X92004762Y-50977165D02*
X92023809Y-50939070D01*
X92023809Y-50939070D02*
X92061904Y-50900975D01*
X92061904Y-50900975D02*
X92119047Y-50881927D01*
X92119047Y-50881927D02*
X92157143Y-50881927D01*
X92157143Y-50881927D02*
X92214285Y-50900975D01*
X92214285Y-50900975D02*
X92233333Y-50920022D01*
X92366666Y-50881927D02*
X92614285Y-50881927D01*
X92614285Y-50881927D02*
X92480952Y-51034308D01*
X92480952Y-51034308D02*
X92538095Y-51034308D01*
X92538095Y-51034308D02*
X92576190Y-51053356D01*
X92576190Y-51053356D02*
X92595238Y-51072403D01*
X92595238Y-51072403D02*
X92614285Y-51110499D01*
X92614285Y-51110499D02*
X92614285Y-51205737D01*
X92614285Y-51205737D02*
X92595238Y-51243832D01*
X92595238Y-51243832D02*
X92576190Y-51262880D01*
X92576190Y-51262880D02*
X92538095Y-51281927D01*
X92538095Y-51281927D02*
X92423809Y-51281927D01*
X92423809Y-51281927D02*
X92385714Y-51262880D01*
X92385714Y-51262880D02*
X92366666Y-51243832D01*
D11*
X73819047Y-59927409D02*
X73819047Y-60332171D01*
X73819047Y-60332171D02*
X73842857Y-60379790D01*
X73842857Y-60379790D02*
X73866666Y-60403600D01*
X73866666Y-60403600D02*
X73914285Y-60427409D01*
X73914285Y-60427409D02*
X74009523Y-60427409D01*
X74009523Y-60427409D02*
X74057142Y-60403600D01*
X74057142Y-60403600D02*
X74080952Y-60379790D01*
X74080952Y-60379790D02*
X74104761Y-60332171D01*
X74104761Y-60332171D02*
X74104761Y-59927409D01*
X74295238Y-59927409D02*
X74604762Y-59927409D01*
X74604762Y-59927409D02*
X74438095Y-60117885D01*
X74438095Y-60117885D02*
X74509524Y-60117885D01*
X74509524Y-60117885D02*
X74557143Y-60141695D01*
X74557143Y-60141695D02*
X74580952Y-60165504D01*
X74580952Y-60165504D02*
X74604762Y-60213123D01*
X74604762Y-60213123D02*
X74604762Y-60332171D01*
X74604762Y-60332171D02*
X74580952Y-60379790D01*
X74580952Y-60379790D02*
X74557143Y-60403600D01*
X74557143Y-60403600D02*
X74509524Y-60427409D01*
X74509524Y-60427409D02*
X74366667Y-60427409D01*
X74366667Y-60427409D02*
X74319048Y-60403600D01*
X74319048Y-60403600D02*
X74295238Y-60379790D01*
D10*
X75943832Y-64566666D02*
X75962880Y-64585714D01*
X75962880Y-64585714D02*
X75981927Y-64642856D01*
X75981927Y-64642856D02*
X75981927Y-64680952D01*
X75981927Y-64680952D02*
X75962880Y-64738095D01*
X75962880Y-64738095D02*
X75924784Y-64776190D01*
X75924784Y-64776190D02*
X75886689Y-64795237D01*
X75886689Y-64795237D02*
X75810499Y-64814285D01*
X75810499Y-64814285D02*
X75753356Y-64814285D01*
X75753356Y-64814285D02*
X75677165Y-64795237D01*
X75677165Y-64795237D02*
X75639070Y-64776190D01*
X75639070Y-64776190D02*
X75600975Y-64738095D01*
X75600975Y-64738095D02*
X75581927Y-64680952D01*
X75581927Y-64680952D02*
X75581927Y-64642856D01*
X75581927Y-64642856D02*
X75600975Y-64585714D01*
X75600975Y-64585714D02*
X75620022Y-64566666D01*
X75581927Y-64433333D02*
X75581927Y-64166666D01*
X75581927Y-64166666D02*
X75981927Y-64338095D01*
X93843832Y-63891666D02*
X93862880Y-63910714D01*
X93862880Y-63910714D02*
X93881927Y-63967856D01*
X93881927Y-63967856D02*
X93881927Y-64005952D01*
X93881927Y-64005952D02*
X93862880Y-64063095D01*
X93862880Y-64063095D02*
X93824784Y-64101190D01*
X93824784Y-64101190D02*
X93786689Y-64120237D01*
X93786689Y-64120237D02*
X93710499Y-64139285D01*
X93710499Y-64139285D02*
X93653356Y-64139285D01*
X93653356Y-64139285D02*
X93577165Y-64120237D01*
X93577165Y-64120237D02*
X93539070Y-64101190D01*
X93539070Y-64101190D02*
X93500975Y-64063095D01*
X93500975Y-64063095D02*
X93481927Y-64005952D01*
X93481927Y-64005952D02*
X93481927Y-63967856D01*
X93481927Y-63967856D02*
X93500975Y-63910714D01*
X93500975Y-63910714D02*
X93520022Y-63891666D01*
X93520022Y-63739285D02*
X93500975Y-63720237D01*
X93500975Y-63720237D02*
X93481927Y-63682142D01*
X93481927Y-63682142D02*
X93481927Y-63586904D01*
X93481927Y-63586904D02*
X93500975Y-63548809D01*
X93500975Y-63548809D02*
X93520022Y-63529761D01*
X93520022Y-63529761D02*
X93558118Y-63510714D01*
X93558118Y-63510714D02*
X93596213Y-63510714D01*
X93596213Y-63510714D02*
X93653356Y-63529761D01*
X93653356Y-63529761D02*
X93881927Y-63758333D01*
X93881927Y-63758333D02*
X93881927Y-63510714D01*
X92233333Y-52843832D02*
X92214285Y-52862880D01*
X92214285Y-52862880D02*
X92157143Y-52881927D01*
X92157143Y-52881927D02*
X92119047Y-52881927D01*
X92119047Y-52881927D02*
X92061904Y-52862880D01*
X92061904Y-52862880D02*
X92023809Y-52824784D01*
X92023809Y-52824784D02*
X92004762Y-52786689D01*
X92004762Y-52786689D02*
X91985714Y-52710499D01*
X91985714Y-52710499D02*
X91985714Y-52653356D01*
X91985714Y-52653356D02*
X92004762Y-52577165D01*
X92004762Y-52577165D02*
X92023809Y-52539070D01*
X92023809Y-52539070D02*
X92061904Y-52500975D01*
X92061904Y-52500975D02*
X92119047Y-52481927D01*
X92119047Y-52481927D02*
X92157143Y-52481927D01*
X92157143Y-52481927D02*
X92214285Y-52500975D01*
X92214285Y-52500975D02*
X92233333Y-52520022D01*
X92576190Y-52615260D02*
X92576190Y-52881927D01*
X92480952Y-52462880D02*
X92385714Y-52748594D01*
X92385714Y-52748594D02*
X92633333Y-52748594D01*
D12*
X83356667Y-64017200D02*
X83499524Y-64064819D01*
X83499524Y-64064819D02*
X83737619Y-64064819D01*
X83737619Y-64064819D02*
X83832857Y-64017200D01*
X83832857Y-64017200D02*
X83880476Y-63969580D01*
X83880476Y-63969580D02*
X83928095Y-63874342D01*
X83928095Y-63874342D02*
X83928095Y-63779104D01*
X83928095Y-63779104D02*
X83880476Y-63683866D01*
X83880476Y-63683866D02*
X83832857Y-63636247D01*
X83832857Y-63636247D02*
X83737619Y-63588628D01*
X83737619Y-63588628D02*
X83547143Y-63541009D01*
X83547143Y-63541009D02*
X83451905Y-63493390D01*
X83451905Y-63493390D02*
X83404286Y-63445771D01*
X83404286Y-63445771D02*
X83356667Y-63350533D01*
X83356667Y-63350533D02*
X83356667Y-63255295D01*
X83356667Y-63255295D02*
X83404286Y-63160057D01*
X83404286Y-63160057D02*
X83451905Y-63112438D01*
X83451905Y-63112438D02*
X83547143Y-63064819D01*
X83547143Y-63064819D02*
X83785238Y-63064819D01*
X83785238Y-63064819D02*
X83928095Y-63112438D01*
X84261429Y-63064819D02*
X84499524Y-64064819D01*
X84499524Y-64064819D02*
X84690000Y-63350533D01*
X84690000Y-63350533D02*
X84880476Y-64064819D01*
X84880476Y-64064819D02*
X85118572Y-63064819D01*
X86023333Y-64064819D02*
X85451905Y-64064819D01*
X85737619Y-64064819D02*
X85737619Y-63064819D01*
X85737619Y-63064819D02*
X85642381Y-63207676D01*
X85642381Y-63207676D02*
X85547143Y-63302914D01*
X85547143Y-63302914D02*
X85451905Y-63350533D01*
D10*
X80581927Y-62595237D02*
X80181927Y-62595237D01*
X80181927Y-62595237D02*
X80181927Y-62499999D01*
X80181927Y-62499999D02*
X80200975Y-62442856D01*
X80200975Y-62442856D02*
X80239070Y-62404761D01*
X80239070Y-62404761D02*
X80277165Y-62385714D01*
X80277165Y-62385714D02*
X80353356Y-62366666D01*
X80353356Y-62366666D02*
X80410499Y-62366666D01*
X80410499Y-62366666D02*
X80486689Y-62385714D01*
X80486689Y-62385714D02*
X80524784Y-62404761D01*
X80524784Y-62404761D02*
X80562880Y-62442856D01*
X80562880Y-62442856D02*
X80581927Y-62499999D01*
X80581927Y-62499999D02*
X80581927Y-62595237D01*
X80181927Y-62233333D02*
X80181927Y-61985714D01*
X80181927Y-61985714D02*
X80334308Y-62119047D01*
X80334308Y-62119047D02*
X80334308Y-62061904D01*
X80334308Y-62061904D02*
X80353356Y-62023809D01*
X80353356Y-62023809D02*
X80372403Y-62004761D01*
X80372403Y-62004761D02*
X80410499Y-61985714D01*
X80410499Y-61985714D02*
X80505737Y-61985714D01*
X80505737Y-61985714D02*
X80543832Y-62004761D01*
X80543832Y-62004761D02*
X80562880Y-62023809D01*
X80562880Y-62023809D02*
X80581927Y-62061904D01*
X80581927Y-62061904D02*
X80581927Y-62176190D01*
X80581927Y-62176190D02*
X80562880Y-62214285D01*
X80562880Y-62214285D02*
X80543832Y-62233333D01*
X73333333Y-63781927D02*
X73200000Y-63591451D01*
X73104762Y-63781927D02*
X73104762Y-63381927D01*
X73104762Y-63381927D02*
X73257143Y-63381927D01*
X73257143Y-63381927D02*
X73295238Y-63400975D01*
X73295238Y-63400975D02*
X73314285Y-63420022D01*
X73314285Y-63420022D02*
X73333333Y-63458118D01*
X73333333Y-63458118D02*
X73333333Y-63515260D01*
X73333333Y-63515260D02*
X73314285Y-63553356D01*
X73314285Y-63553356D02*
X73295238Y-63572403D01*
X73295238Y-63572403D02*
X73257143Y-63591451D01*
X73257143Y-63591451D02*
X73104762Y-63591451D01*
X73676190Y-63381927D02*
X73600000Y-63381927D01*
X73600000Y-63381927D02*
X73561904Y-63400975D01*
X73561904Y-63400975D02*
X73542857Y-63420022D01*
X73542857Y-63420022D02*
X73504762Y-63477165D01*
X73504762Y-63477165D02*
X73485714Y-63553356D01*
X73485714Y-63553356D02*
X73485714Y-63705737D01*
X73485714Y-63705737D02*
X73504762Y-63743832D01*
X73504762Y-63743832D02*
X73523809Y-63762880D01*
X73523809Y-63762880D02*
X73561904Y-63781927D01*
X73561904Y-63781927D02*
X73638095Y-63781927D01*
X73638095Y-63781927D02*
X73676190Y-63762880D01*
X73676190Y-63762880D02*
X73695238Y-63743832D01*
X73695238Y-63743832D02*
X73714285Y-63705737D01*
X73714285Y-63705737D02*
X73714285Y-63610499D01*
X73714285Y-63610499D02*
X73695238Y-63572403D01*
X73695238Y-63572403D02*
X73676190Y-63553356D01*
X73676190Y-63553356D02*
X73638095Y-63534308D01*
X73638095Y-63534308D02*
X73561904Y-63534308D01*
X73561904Y-63534308D02*
X73523809Y-63553356D01*
X73523809Y-63553356D02*
X73504762Y-63572403D01*
X73504762Y-63572403D02*
X73485714Y-63610499D01*
D12*
X104496667Y-52207200D02*
X104639524Y-52254819D01*
X104639524Y-52254819D02*
X104877619Y-52254819D01*
X104877619Y-52254819D02*
X104972857Y-52207200D01*
X104972857Y-52207200D02*
X105020476Y-52159580D01*
X105020476Y-52159580D02*
X105068095Y-52064342D01*
X105068095Y-52064342D02*
X105068095Y-51969104D01*
X105068095Y-51969104D02*
X105020476Y-51873866D01*
X105020476Y-51873866D02*
X104972857Y-51826247D01*
X104972857Y-51826247D02*
X104877619Y-51778628D01*
X104877619Y-51778628D02*
X104687143Y-51731009D01*
X104687143Y-51731009D02*
X104591905Y-51683390D01*
X104591905Y-51683390D02*
X104544286Y-51635771D01*
X104544286Y-51635771D02*
X104496667Y-51540533D01*
X104496667Y-51540533D02*
X104496667Y-51445295D01*
X104496667Y-51445295D02*
X104544286Y-51350057D01*
X104544286Y-51350057D02*
X104591905Y-51302438D01*
X104591905Y-51302438D02*
X104687143Y-51254819D01*
X104687143Y-51254819D02*
X104925238Y-51254819D01*
X104925238Y-51254819D02*
X105068095Y-51302438D01*
X105401429Y-51254819D02*
X105639524Y-52254819D01*
X105639524Y-52254819D02*
X105830000Y-51540533D01*
X105830000Y-51540533D02*
X106020476Y-52254819D01*
X106020476Y-52254819D02*
X106258572Y-51254819D01*
X106591905Y-51350057D02*
X106639524Y-51302438D01*
X106639524Y-51302438D02*
X106734762Y-51254819D01*
X106734762Y-51254819D02*
X106972857Y-51254819D01*
X106972857Y-51254819D02*
X107068095Y-51302438D01*
X107068095Y-51302438D02*
X107115714Y-51350057D01*
X107115714Y-51350057D02*
X107163333Y-51445295D01*
X107163333Y-51445295D02*
X107163333Y-51540533D01*
X107163333Y-51540533D02*
X107115714Y-51683390D01*
X107115714Y-51683390D02*
X106544286Y-52254819D01*
X106544286Y-52254819D02*
X107163333Y-52254819D01*
D13*
X90556190Y-63725438D02*
X90556190Y-63984485D01*
X90556190Y-63984485D02*
X90571428Y-64014961D01*
X90571428Y-64014961D02*
X90586666Y-64030200D01*
X90586666Y-64030200D02*
X90617142Y-64045438D01*
X90617142Y-64045438D02*
X90678095Y-64045438D01*
X90678095Y-64045438D02*
X90708571Y-64030200D01*
X90708571Y-64030200D02*
X90723809Y-64014961D01*
X90723809Y-64014961D02*
X90739047Y-63984485D01*
X90739047Y-63984485D02*
X90739047Y-63725438D01*
X91059047Y-64045438D02*
X90876190Y-64045438D01*
X90967618Y-64045438D02*
X90967618Y-63725438D01*
X90967618Y-63725438D02*
X90937142Y-63771152D01*
X90937142Y-63771152D02*
X90906666Y-63801628D01*
X90906666Y-63801628D02*
X90876190Y-63816866D01*
D10*
X77181927Y-59366666D02*
X76991451Y-59499999D01*
X77181927Y-59595237D02*
X76781927Y-59595237D01*
X76781927Y-59595237D02*
X76781927Y-59442856D01*
X76781927Y-59442856D02*
X76800975Y-59404761D01*
X76800975Y-59404761D02*
X76820022Y-59385714D01*
X76820022Y-59385714D02*
X76858118Y-59366666D01*
X76858118Y-59366666D02*
X76915260Y-59366666D01*
X76915260Y-59366666D02*
X76953356Y-59385714D01*
X76953356Y-59385714D02*
X76972403Y-59404761D01*
X76972403Y-59404761D02*
X76991451Y-59442856D01*
X76991451Y-59442856D02*
X76991451Y-59595237D01*
X76953356Y-59138095D02*
X76934308Y-59176190D01*
X76934308Y-59176190D02*
X76915260Y-59195237D01*
X76915260Y-59195237D02*
X76877165Y-59214285D01*
X76877165Y-59214285D02*
X76858118Y-59214285D01*
X76858118Y-59214285D02*
X76820022Y-59195237D01*
X76820022Y-59195237D02*
X76800975Y-59176190D01*
X76800975Y-59176190D02*
X76781927Y-59138095D01*
X76781927Y-59138095D02*
X76781927Y-59061904D01*
X76781927Y-59061904D02*
X76800975Y-59023809D01*
X76800975Y-59023809D02*
X76820022Y-59004761D01*
X76820022Y-59004761D02*
X76858118Y-58985714D01*
X76858118Y-58985714D02*
X76877165Y-58985714D01*
X76877165Y-58985714D02*
X76915260Y-59004761D01*
X76915260Y-59004761D02*
X76934308Y-59023809D01*
X76934308Y-59023809D02*
X76953356Y-59061904D01*
X76953356Y-59061904D02*
X76953356Y-59138095D01*
X76953356Y-59138095D02*
X76972403Y-59176190D01*
X76972403Y-59176190D02*
X76991451Y-59195237D01*
X76991451Y-59195237D02*
X77029546Y-59214285D01*
X77029546Y-59214285D02*
X77105737Y-59214285D01*
X77105737Y-59214285D02*
X77143832Y-59195237D01*
X77143832Y-59195237D02*
X77162880Y-59176190D01*
X77162880Y-59176190D02*
X77181927Y-59138095D01*
X77181927Y-59138095D02*
X77181927Y-59061904D01*
X77181927Y-59061904D02*
X77162880Y-59023809D01*
X77162880Y-59023809D02*
X77143832Y-59004761D01*
X77143832Y-59004761D02*
X77105737Y-58985714D01*
X77105737Y-58985714D02*
X77029546Y-58985714D01*
X77029546Y-58985714D02*
X76991451Y-59004761D01*
X76991451Y-59004761D02*
X76972403Y-59023809D01*
X76972403Y-59023809D02*
X76953356Y-59061904D01*
X78881927Y-59366666D02*
X78691451Y-59499999D01*
X78881927Y-59595237D02*
X78481927Y-59595237D01*
X78481927Y-59595237D02*
X78481927Y-59442856D01*
X78481927Y-59442856D02*
X78500975Y-59404761D01*
X78500975Y-59404761D02*
X78520022Y-59385714D01*
X78520022Y-59385714D02*
X78558118Y-59366666D01*
X78558118Y-59366666D02*
X78615260Y-59366666D01*
X78615260Y-59366666D02*
X78653356Y-59385714D01*
X78653356Y-59385714D02*
X78672403Y-59404761D01*
X78672403Y-59404761D02*
X78691451Y-59442856D01*
X78691451Y-59442856D02*
X78691451Y-59595237D01*
X78615260Y-59023809D02*
X78881927Y-59023809D01*
X78462880Y-59119047D02*
X78748594Y-59214285D01*
X78748594Y-59214285D02*
X78748594Y-58966666D01*
D13*
X101232023Y-57325914D02*
X101201547Y-57310676D01*
X101201547Y-57310676D02*
X101171071Y-57280200D01*
X101171071Y-57280200D02*
X101125357Y-57234485D01*
X101125357Y-57234485D02*
X101094880Y-57219247D01*
X101094880Y-57219247D02*
X101064404Y-57219247D01*
X101079642Y-57295438D02*
X101049166Y-57280200D01*
X101049166Y-57280200D02*
X101018690Y-57249723D01*
X101018690Y-57249723D02*
X101003452Y-57188771D01*
X101003452Y-57188771D02*
X101003452Y-57082104D01*
X101003452Y-57082104D02*
X101018690Y-57021152D01*
X101018690Y-57021152D02*
X101049166Y-56990676D01*
X101049166Y-56990676D02*
X101079642Y-56975438D01*
X101079642Y-56975438D02*
X101140595Y-56975438D01*
X101140595Y-56975438D02*
X101171071Y-56990676D01*
X101171071Y-56990676D02*
X101201547Y-57021152D01*
X101201547Y-57021152D02*
X101216785Y-57082104D01*
X101216785Y-57082104D02*
X101216785Y-57188771D01*
X101216785Y-57188771D02*
X101201547Y-57249723D01*
X101201547Y-57249723D02*
X101171071Y-57280200D01*
X101171071Y-57280200D02*
X101140595Y-57295438D01*
X101140595Y-57295438D02*
X101079642Y-57295438D01*
X101521547Y-57295438D02*
X101338690Y-57295438D01*
X101430118Y-57295438D02*
X101430118Y-56975438D01*
X101430118Y-56975438D02*
X101399642Y-57021152D01*
X101399642Y-57021152D02*
X101369166Y-57051628D01*
X101369166Y-57051628D02*
X101338690Y-57066866D01*
D10*
X105533333Y-57981927D02*
X105400000Y-57791451D01*
X105304762Y-57981927D02*
X105304762Y-57581927D01*
X105304762Y-57581927D02*
X105457143Y-57581927D01*
X105457143Y-57581927D02*
X105495238Y-57600975D01*
X105495238Y-57600975D02*
X105514285Y-57620022D01*
X105514285Y-57620022D02*
X105533333Y-57658118D01*
X105533333Y-57658118D02*
X105533333Y-57715260D01*
X105533333Y-57715260D02*
X105514285Y-57753356D01*
X105514285Y-57753356D02*
X105495238Y-57772403D01*
X105495238Y-57772403D02*
X105457143Y-57791451D01*
X105457143Y-57791451D02*
X105304762Y-57791451D01*
X105914285Y-57981927D02*
X105685714Y-57981927D01*
X105800000Y-57981927D02*
X105800000Y-57581927D01*
X105800000Y-57581927D02*
X105761904Y-57639070D01*
X105761904Y-57639070D02*
X105723809Y-57677165D01*
X105723809Y-57677165D02*
X105685714Y-57696213D01*
X81181927Y-58366666D02*
X80991451Y-58499999D01*
X81181927Y-58595237D02*
X80781927Y-58595237D01*
X80781927Y-58595237D02*
X80781927Y-58442856D01*
X80781927Y-58442856D02*
X80800975Y-58404761D01*
X80800975Y-58404761D02*
X80820022Y-58385714D01*
X80820022Y-58385714D02*
X80858118Y-58366666D01*
X80858118Y-58366666D02*
X80915260Y-58366666D01*
X80915260Y-58366666D02*
X80953356Y-58385714D01*
X80953356Y-58385714D02*
X80972403Y-58404761D01*
X80972403Y-58404761D02*
X80991451Y-58442856D01*
X80991451Y-58442856D02*
X80991451Y-58595237D01*
X80781927Y-58004761D02*
X80781927Y-58195237D01*
X80781927Y-58195237D02*
X80972403Y-58214285D01*
X80972403Y-58214285D02*
X80953356Y-58195237D01*
X80953356Y-58195237D02*
X80934308Y-58157142D01*
X80934308Y-58157142D02*
X80934308Y-58061904D01*
X80934308Y-58061904D02*
X80953356Y-58023809D01*
X80953356Y-58023809D02*
X80972403Y-58004761D01*
X80972403Y-58004761D02*
X81010499Y-57985714D01*
X81010499Y-57985714D02*
X81105737Y-57985714D01*
X81105737Y-57985714D02*
X81143832Y-58004761D01*
X81143832Y-58004761D02*
X81162880Y-58023809D01*
X81162880Y-58023809D02*
X81181927Y-58061904D01*
X81181927Y-58061904D02*
X81181927Y-58157142D01*
X81181927Y-58157142D02*
X81162880Y-58195237D01*
X81162880Y-58195237D02*
X81143832Y-58214285D01*
X97381927Y-63966666D02*
X97191451Y-64099999D01*
X97381927Y-64195237D02*
X96981927Y-64195237D01*
X96981927Y-64195237D02*
X96981927Y-64042856D01*
X96981927Y-64042856D02*
X97000975Y-64004761D01*
X97000975Y-64004761D02*
X97020022Y-63985714D01*
X97020022Y-63985714D02*
X97058118Y-63966666D01*
X97058118Y-63966666D02*
X97115260Y-63966666D01*
X97115260Y-63966666D02*
X97153356Y-63985714D01*
X97153356Y-63985714D02*
X97172403Y-64004761D01*
X97172403Y-64004761D02*
X97191451Y-64042856D01*
X97191451Y-64042856D02*
X97191451Y-64195237D01*
X97020022Y-63814285D02*
X97000975Y-63795237D01*
X97000975Y-63795237D02*
X96981927Y-63757142D01*
X96981927Y-63757142D02*
X96981927Y-63661904D01*
X96981927Y-63661904D02*
X97000975Y-63623809D01*
X97000975Y-63623809D02*
X97020022Y-63604761D01*
X97020022Y-63604761D02*
X97058118Y-63585714D01*
X97058118Y-63585714D02*
X97096213Y-63585714D01*
X97096213Y-63585714D02*
X97153356Y-63604761D01*
X97153356Y-63604761D02*
X97381927Y-63833333D01*
X97381927Y-63833333D02*
X97381927Y-63585714D01*
X77733333Y-61781927D02*
X77600000Y-61591451D01*
X77504762Y-61781927D02*
X77504762Y-61381927D01*
X77504762Y-61381927D02*
X77657143Y-61381927D01*
X77657143Y-61381927D02*
X77695238Y-61400975D01*
X77695238Y-61400975D02*
X77714285Y-61420022D01*
X77714285Y-61420022D02*
X77733333Y-61458118D01*
X77733333Y-61458118D02*
X77733333Y-61515260D01*
X77733333Y-61515260D02*
X77714285Y-61553356D01*
X77714285Y-61553356D02*
X77695238Y-61572403D01*
X77695238Y-61572403D02*
X77657143Y-61591451D01*
X77657143Y-61591451D02*
X77504762Y-61591451D01*
X77866666Y-61381927D02*
X78133333Y-61381927D01*
X78133333Y-61381927D02*
X77961904Y-61781927D01*
X90733333Y-66743832D02*
X90714285Y-66762880D01*
X90714285Y-66762880D02*
X90657143Y-66781927D01*
X90657143Y-66781927D02*
X90619047Y-66781927D01*
X90619047Y-66781927D02*
X90561904Y-66762880D01*
X90561904Y-66762880D02*
X90523809Y-66724784D01*
X90523809Y-66724784D02*
X90504762Y-66686689D01*
X90504762Y-66686689D02*
X90485714Y-66610499D01*
X90485714Y-66610499D02*
X90485714Y-66553356D01*
X90485714Y-66553356D02*
X90504762Y-66477165D01*
X90504762Y-66477165D02*
X90523809Y-66439070D01*
X90523809Y-66439070D02*
X90561904Y-66400975D01*
X90561904Y-66400975D02*
X90619047Y-66381927D01*
X90619047Y-66381927D02*
X90657143Y-66381927D01*
X90657143Y-66381927D02*
X90714285Y-66400975D01*
X90714285Y-66400975D02*
X90733333Y-66420022D01*
X91114285Y-66781927D02*
X90885714Y-66781927D01*
X91000000Y-66781927D02*
X91000000Y-66381927D01*
X91000000Y-66381927D02*
X90961904Y-66439070D01*
X90961904Y-66439070D02*
X90923809Y-66477165D01*
X90923809Y-66477165D02*
X90885714Y-66496213D01*
D12*
X98191905Y-52279819D02*
X98191905Y-51279819D01*
X98191905Y-51279819D02*
X98430000Y-51279819D01*
X98430000Y-51279819D02*
X98572857Y-51327438D01*
X98572857Y-51327438D02*
X98668095Y-51422676D01*
X98668095Y-51422676D02*
X98715714Y-51517914D01*
X98715714Y-51517914D02*
X98763333Y-51708390D01*
X98763333Y-51708390D02*
X98763333Y-51851247D01*
X98763333Y-51851247D02*
X98715714Y-52041723D01*
X98715714Y-52041723D02*
X98668095Y-52136961D01*
X98668095Y-52136961D02*
X98572857Y-52232200D01*
X98572857Y-52232200D02*
X98430000Y-52279819D01*
X98430000Y-52279819D02*
X98191905Y-52279819D01*
X99715714Y-52279819D02*
X99144286Y-52279819D01*
X99430000Y-52279819D02*
X99430000Y-51279819D01*
X99430000Y-51279819D02*
X99334762Y-51422676D01*
X99334762Y-51422676D02*
X99239524Y-51517914D01*
X99239524Y-51517914D02*
X99144286Y-51565533D01*
X102764819Y-64651904D02*
X103574342Y-64651904D01*
X103574342Y-64651904D02*
X103669580Y-64604285D01*
X103669580Y-64604285D02*
X103717200Y-64556666D01*
X103717200Y-64556666D02*
X103764819Y-64461428D01*
X103764819Y-64461428D02*
X103764819Y-64270952D01*
X103764819Y-64270952D02*
X103717200Y-64175714D01*
X103717200Y-64175714D02*
X103669580Y-64128095D01*
X103669580Y-64128095D02*
X103574342Y-64080476D01*
X103574342Y-64080476D02*
X102764819Y-64080476D01*
X102860057Y-63651904D02*
X102812438Y-63604285D01*
X102812438Y-63604285D02*
X102764819Y-63509047D01*
X102764819Y-63509047D02*
X102764819Y-63270952D01*
X102764819Y-63270952D02*
X102812438Y-63175714D01*
X102812438Y-63175714D02*
X102860057Y-63128095D01*
X102860057Y-63128095D02*
X102955295Y-63080476D01*
X102955295Y-63080476D02*
X103050533Y-63080476D01*
X103050533Y-63080476D02*
X103193390Y-63128095D01*
X103193390Y-63128095D02*
X103764819Y-63699523D01*
X103764819Y-63699523D02*
X103764819Y-63080476D01*
X84786666Y-61529819D02*
X84786666Y-62244104D01*
X84786666Y-62244104D02*
X84739047Y-62386961D01*
X84739047Y-62386961D02*
X84643809Y-62482200D01*
X84643809Y-62482200D02*
X84500952Y-62529819D01*
X84500952Y-62529819D02*
X84405714Y-62529819D01*
X85786666Y-62529819D02*
X85215238Y-62529819D01*
X85500952Y-62529819D02*
X85500952Y-61529819D01*
X85500952Y-61529819D02*
X85405714Y-61672676D01*
X85405714Y-61672676D02*
X85310476Y-61767914D01*
X85310476Y-61767914D02*
X85215238Y-61815533D01*
D10*
X71643832Y-59366666D02*
X71662880Y-59385714D01*
X71662880Y-59385714D02*
X71681927Y-59442856D01*
X71681927Y-59442856D02*
X71681927Y-59480952D01*
X71681927Y-59480952D02*
X71662880Y-59538095D01*
X71662880Y-59538095D02*
X71624784Y-59576190D01*
X71624784Y-59576190D02*
X71586689Y-59595237D01*
X71586689Y-59595237D02*
X71510499Y-59614285D01*
X71510499Y-59614285D02*
X71453356Y-59614285D01*
X71453356Y-59614285D02*
X71377165Y-59595237D01*
X71377165Y-59595237D02*
X71339070Y-59576190D01*
X71339070Y-59576190D02*
X71300975Y-59538095D01*
X71300975Y-59538095D02*
X71281927Y-59480952D01*
X71281927Y-59480952D02*
X71281927Y-59442856D01*
X71281927Y-59442856D02*
X71300975Y-59385714D01*
X71300975Y-59385714D02*
X71320022Y-59366666D01*
X71281927Y-59023809D02*
X71281927Y-59099999D01*
X71281927Y-59099999D02*
X71300975Y-59138095D01*
X71300975Y-59138095D02*
X71320022Y-59157142D01*
X71320022Y-59157142D02*
X71377165Y-59195237D01*
X71377165Y-59195237D02*
X71453356Y-59214285D01*
X71453356Y-59214285D02*
X71605737Y-59214285D01*
X71605737Y-59214285D02*
X71643832Y-59195237D01*
X71643832Y-59195237D02*
X71662880Y-59176190D01*
X71662880Y-59176190D02*
X71681927Y-59138095D01*
X71681927Y-59138095D02*
X71681927Y-59061904D01*
X71681927Y-59061904D02*
X71662880Y-59023809D01*
X71662880Y-59023809D02*
X71643832Y-59004761D01*
X71643832Y-59004761D02*
X71605737Y-58985714D01*
X71605737Y-58985714D02*
X71510499Y-58985714D01*
X71510499Y-58985714D02*
X71472403Y-59004761D01*
X71472403Y-59004761D02*
X71453356Y-59023809D01*
X71453356Y-59023809D02*
X71434308Y-59061904D01*
X71434308Y-59061904D02*
X71434308Y-59138095D01*
X71434308Y-59138095D02*
X71453356Y-59176190D01*
X71453356Y-59176190D02*
X71472403Y-59195237D01*
X71472403Y-59195237D02*
X71510499Y-59214285D01*
X95681927Y-67166666D02*
X95491451Y-67299999D01*
X95681927Y-67395237D02*
X95281927Y-67395237D01*
X95281927Y-67395237D02*
X95281927Y-67242856D01*
X95281927Y-67242856D02*
X95300975Y-67204761D01*
X95300975Y-67204761D02*
X95320022Y-67185714D01*
X95320022Y-67185714D02*
X95358118Y-67166666D01*
X95358118Y-67166666D02*
X95415260Y-67166666D01*
X95415260Y-67166666D02*
X95453356Y-67185714D01*
X95453356Y-67185714D02*
X95472403Y-67204761D01*
X95472403Y-67204761D02*
X95491451Y-67242856D01*
X95491451Y-67242856D02*
X95491451Y-67395237D01*
X95281927Y-67033333D02*
X95281927Y-66785714D01*
X95281927Y-66785714D02*
X95434308Y-66919047D01*
X95434308Y-66919047D02*
X95434308Y-66861904D01*
X95434308Y-66861904D02*
X95453356Y-66823809D01*
X95453356Y-66823809D02*
X95472403Y-66804761D01*
X95472403Y-66804761D02*
X95510499Y-66785714D01*
X95510499Y-66785714D02*
X95605737Y-66785714D01*
X95605737Y-66785714D02*
X95643832Y-66804761D01*
X95643832Y-66804761D02*
X95662880Y-66823809D01*
X95662880Y-66823809D02*
X95681927Y-66861904D01*
X95681927Y-66861904D02*
X95681927Y-66976190D01*
X95681927Y-66976190D02*
X95662880Y-67014285D01*
X95662880Y-67014285D02*
X95643832Y-67033333D01*
D14*
%TO.C,BT2*%
X82100000Y-52800000D02*
X82100000Y-56200000D01*
X82100000Y-56200000D02*
X87750000Y-56200000D01*
X83800000Y-52800000D02*
X84300000Y-53507107D01*
X84300000Y-53507107D02*
X84800000Y-52800000D01*
X87750000Y-52800000D02*
X82100000Y-52800000D01*
X87750000Y-56200000D02*
X87750000Y-52800000D01*
%TO.C,D2*%
X95400000Y-64687500D02*
X95900000Y-64687500D01*
X95900000Y-64687500D02*
X95900000Y-63087500D01*
X95100000Y-64387500D02*
X95400000Y-64687500D01*
X95100000Y-63087500D02*
X95100000Y-64387500D01*
X95900000Y-63087500D02*
X95100000Y-63087500D01*
%TO.C,SW3*%
X97350000Y-58830000D02*
X97350000Y-60735000D01*
X89730000Y-58830000D02*
X97350000Y-58830000D01*
X97350000Y-60735000D02*
X96715000Y-61370000D01*
X96715000Y-61370000D02*
X89730000Y-61370000D01*
X89730000Y-61370000D02*
X89730000Y-58830000D01*
%TO.C,C3*%
X93100000Y-51512500D02*
X91500000Y-51512500D01*
X93100000Y-50687500D02*
X93100000Y-51512500D01*
X91500000Y-51512500D02*
X91500000Y-50687500D01*
X91500000Y-50687500D02*
X93100000Y-50687500D01*
%TO.C,U3*%
X73300000Y-61100000D02*
X75750000Y-61100000D01*
X73300000Y-61100000D02*
X72650000Y-60450000D01*
X72650000Y-59300000D02*
X72650000Y-60450000D01*
X72650000Y-59300000D02*
X75750000Y-59300000D01*
X75750000Y-59300000D02*
X75750000Y-61100000D01*
%TO.C,C7*%
X76200000Y-63700000D02*
X76200000Y-65300000D01*
X75400000Y-63700000D02*
X76200000Y-63700000D01*
X76200000Y-65300000D02*
X75400000Y-65300000D01*
X75400000Y-65300000D02*
X75400000Y-63700000D01*
%TO.C,C2*%
X94100000Y-63025000D02*
X94100000Y-64625000D01*
X93300000Y-63025000D02*
X94100000Y-63025000D01*
X94100000Y-64625000D02*
X93300000Y-64625000D01*
X93300000Y-64625000D02*
X93300000Y-63025000D01*
%TO.C,C4*%
X93100000Y-53112500D02*
X91500000Y-53112500D01*
X93100000Y-52287500D02*
X93100000Y-53112500D01*
X91500000Y-53112500D02*
X91500000Y-52287500D01*
X91500000Y-52287500D02*
X93100000Y-52287500D01*
%TO.C,SW1*%
X78400000Y-64450000D02*
X80200000Y-64450000D01*
X78400000Y-68750000D02*
X78400000Y-64450000D01*
X80200000Y-64450000D02*
X80700000Y-64950000D01*
X80700000Y-64950000D02*
X81200000Y-64450000D01*
X80700000Y-65600000D02*
X80700000Y-67600000D01*
X80700000Y-65600000D02*
X84700000Y-65600000D01*
X80700000Y-67600000D02*
X84700000Y-67600000D01*
X81200000Y-64450000D02*
X87000000Y-64450000D01*
X81360000Y-65600000D02*
X81360000Y-67600000D01*
X82040000Y-65600000D02*
X82040000Y-67600000D01*
X82700000Y-65600000D02*
X82700000Y-67600000D01*
X84700000Y-65600000D02*
X84700000Y-67600000D01*
X87000000Y-64450000D02*
X87000000Y-68750000D01*
X87000000Y-68750000D02*
X78400000Y-68750000D01*
%TO.C,D3*%
X80500000Y-61500000D02*
X80000000Y-61500000D01*
X80000000Y-61500000D02*
X80000000Y-63100000D01*
X80800000Y-61800000D02*
X80500000Y-61500000D01*
X80800000Y-63100000D02*
X80800000Y-61800000D01*
X80000000Y-63100000D02*
X80800000Y-63100000D01*
%TO.C,R6*%
X72600000Y-63187500D02*
X74200000Y-63187500D01*
X72600000Y-64012500D02*
X72600000Y-63187500D01*
X74200000Y-63187500D02*
X74200000Y-64012500D01*
X74200000Y-64012500D02*
X72600000Y-64012500D01*
%TO.C,SW2*%
X108370000Y-50530000D02*
X108370000Y-52435000D01*
X103290000Y-50530000D02*
X108370000Y-50530000D01*
X108370000Y-52435000D02*
X107735000Y-53070000D01*
X107735000Y-53070000D02*
X103290000Y-53070000D01*
X103290000Y-53070000D02*
X103290000Y-50530000D01*
%TO.C,U1*%
X91450000Y-65025000D02*
X91125000Y-65350000D01*
X91450000Y-62450000D02*
X91450000Y-65025000D01*
X91125000Y-65350000D02*
X90150000Y-65350000D01*
X90150000Y-65350000D02*
X90150000Y-62450000D01*
X90150000Y-62450000D02*
X91450000Y-62450000D01*
%TO.C,R8*%
X76587500Y-60100000D02*
X76587500Y-58500000D01*
X77412500Y-60100000D02*
X76587500Y-60100000D01*
X76587500Y-58500000D02*
X77412500Y-58500000D01*
X77412500Y-58500000D02*
X77412500Y-60100000D01*
%TO.C,R4*%
X79112500Y-58500000D02*
X79112500Y-60100000D01*
X78287500Y-58500000D02*
X79112500Y-58500000D01*
X79112500Y-60100000D02*
X78287500Y-60100000D01*
X78287500Y-60100000D02*
X78287500Y-58500000D01*
%TO.C,Q1*%
X101912500Y-58275000D02*
X101587500Y-58600000D01*
X101912500Y-55700000D02*
X101912500Y-58275000D01*
X101587500Y-58600000D02*
X100612500Y-58600000D01*
X100612500Y-58600000D02*
X100612500Y-55700000D01*
X100612500Y-55700000D02*
X101912500Y-55700000D01*
%TO.C,R1*%
X106400000Y-58212500D02*
X104800000Y-58212500D01*
X106400000Y-57387500D02*
X106400000Y-58212500D01*
X104800000Y-58212500D02*
X104800000Y-57387500D01*
X104800000Y-57387500D02*
X106400000Y-57387500D01*
%TO.C,R5*%
X81412500Y-57500000D02*
X81412500Y-59100000D01*
X80587500Y-57500000D02*
X81412500Y-57500000D01*
X81412500Y-59100000D02*
X80587500Y-59100000D01*
X80587500Y-59100000D02*
X80587500Y-57500000D01*
%TO.C,R2*%
X97612500Y-63100000D02*
X97612500Y-64700000D01*
X96787500Y-63100000D02*
X97612500Y-63100000D01*
X97612500Y-64700000D02*
X96787500Y-64700000D01*
X96787500Y-64700000D02*
X96787500Y-63100000D01*
%TO.C,R7*%
X77000000Y-61187500D02*
X78600000Y-61187500D01*
X77000000Y-62012500D02*
X77000000Y-61187500D01*
X78600000Y-61187500D02*
X78600000Y-62012500D01*
X78600000Y-62012500D02*
X77000000Y-62012500D01*
%TO.C,C1*%
X90000000Y-66200000D02*
X91600000Y-66200000D01*
X90000000Y-67000000D02*
X90000000Y-66200000D01*
X91600000Y-66200000D02*
X91600000Y-67000000D01*
X91600000Y-67000000D02*
X90000000Y-67000000D01*
%TO.C,D1*%
X101470000Y-50555000D02*
X101470000Y-52460000D01*
X96390000Y-50555000D02*
X101470000Y-50555000D01*
X101470000Y-52460000D02*
X100835000Y-53095000D01*
X100835000Y-53095000D02*
X96390000Y-53095000D01*
X96390000Y-53095000D02*
X96390000Y-50555000D01*
%TO.C,U2*%
X99230000Y-67065000D02*
X98230000Y-66065000D01*
X108390000Y-67065000D02*
X99230000Y-67065000D01*
X98230000Y-66065000D02*
X98230000Y-60715000D01*
X98230000Y-60715000D02*
X108390000Y-60715000D01*
X108390000Y-60715000D02*
X108390000Y-67065000D01*
%TO.C,J1*%
X82580000Y-63345000D02*
X82580000Y-61440000D01*
X87660000Y-63345000D02*
X82580000Y-63345000D01*
X82580000Y-61440000D02*
X83215000Y-60805000D01*
X83215000Y-60805000D02*
X87660000Y-60805000D01*
X87660000Y-60805000D02*
X87660000Y-63345000D01*
%TO.C,C6*%
X71900000Y-58500000D02*
X71900000Y-60100000D01*
X71100000Y-58500000D02*
X71900000Y-58500000D01*
X71900000Y-60100000D02*
X71100000Y-60100000D01*
X71100000Y-60100000D02*
X71100000Y-58500000D01*
%TO.C,J3*%
X70450000Y-51750000D02*
X70450000Y-52650000D01*
X70450000Y-51750000D02*
X71250000Y-51750000D01*
X70450000Y-55550000D02*
X70450000Y-54650000D01*
X70450000Y-55550000D02*
X71250000Y-55550000D01*
X71250000Y-51750000D02*
X71250000Y-52100000D01*
X71250000Y-55550000D02*
X71250000Y-55200000D01*
X71710000Y-55230000D02*
X77490000Y-55230000D01*
X71850000Y-52390000D02*
X71600000Y-52070000D01*
X71900000Y-51500000D02*
X72900000Y-51500000D01*
X71900000Y-52050000D02*
X71900000Y-51500000D01*
X71900000Y-55250000D02*
X71900000Y-55800000D01*
X71900000Y-55800000D02*
X72900000Y-55800000D01*
X72100000Y-52070000D02*
X71850000Y-52390000D01*
X72900000Y-51500000D02*
X72900000Y-52050000D01*
X72900000Y-55800000D02*
X72900000Y-55250000D01*
X74100000Y-51500000D02*
X75100000Y-51500000D01*
X74100000Y-52050000D02*
X74100000Y-51500000D01*
X74100000Y-55800000D02*
X74100000Y-55250000D01*
X75100000Y-51500000D02*
X75100000Y-52050000D01*
X75100000Y-55250000D02*
X75100000Y-55800000D01*
X75100000Y-55800000D02*
X74100000Y-55800000D01*
X76300000Y-51500000D02*
X76300000Y-52050000D01*
X76300000Y-55800000D02*
X76300000Y-55250000D01*
X77300000Y-51500000D02*
X76300000Y-51500000D01*
X77300000Y-52050000D02*
X77300000Y-51500000D01*
X77300000Y-55250000D02*
X77300000Y-55800000D01*
X77300000Y-55800000D02*
X76300000Y-55800000D01*
X77490000Y-52070000D02*
X71710000Y-52070000D01*
X77950000Y-51750000D02*
X77950000Y-52100000D01*
X77950000Y-55550000D02*
X77950000Y-55200000D01*
X78750000Y-51750000D02*
X77950000Y-51750000D01*
X78750000Y-51750000D02*
X78750000Y-52650000D01*
X78750000Y-55550000D02*
X77950000Y-55550000D01*
X78750000Y-55550000D02*
X78750000Y-54650000D01*
X71710000Y-52070000D02*
G75*
G03*
X71710000Y-55230000I0J-1580000D01*
G01*
X77490000Y-55230000D02*
G75*
G03*
X77490000Y-52070000I0J1580000D01*
G01*
%TO.C,R3*%
X95912500Y-66300000D02*
X95912500Y-67900000D01*
X95087500Y-66300000D02*
X95912500Y-66300000D01*
X95912500Y-67900000D02*
X95087500Y-67900000D01*
X95087500Y-67900000D02*
X95087500Y-66300000D01*
%TD*%
M02*
