%TF.GenerationSoftware,KiCad,Pcbnew,7.0.11-2.fc38*%
%TF.CreationDate,2024-04-24T16:28:46+02:00*%
%TF.ProjectId,lr_40,6c725f34-302e-46b6-9963-61645f706362,rev?*%
%TF.SameCoordinates,Original*%
%TF.FileFunction,Copper,L1,Top*%
%TF.FilePolarity,Positive*%
%FSLAX46Y46*%
G04 Gerber Fmt 4.6, Leading zero omitted, Abs format (unit mm)*
G04 Created by KiCad (PCBNEW 7.0.11-2.fc38) date 2024-04-24 16:28:46*
%MOMM*%
%LPD*%
G01*
G04 APERTURE LIST*
G04 Aperture macros list*
%AMRoundRect*
0 Rectangle with rounded corners*
0 $1 Rounding radius*
0 $2 $3 $4 $5 $6 $7 $8 $9 X,Y pos of 4 corners*
0 Add a 4 corners polygon primitive as box body*
4,1,4,$2,$3,$4,$5,$6,$7,$8,$9,$2,$3,0*
0 Add four circle primitives for the rounded corners*
1,1,$1+$1,$2,$3*
1,1,$1+$1,$4,$5*
1,1,$1+$1,$6,$7*
1,1,$1+$1,$8,$9*
0 Add four rect primitives between the rounded corners*
20,1,$1+$1,$2,$3,$4,$5,0*
20,1,$1+$1,$4,$5,$6,$7,0*
20,1,$1+$1,$6,$7,$8,$9,0*
20,1,$1+$1,$8,$9,$2,$3,0*%
G04 Aperture macros list end*
%TA.AperFunction,SMDPad,CuDef*%
%ADD10R,0.700000X1.800000*%
%TD*%
%TA.AperFunction,SMDPad,CuDef*%
%ADD11R,1.600000X2.200000*%
%TD*%
%TA.AperFunction,SMDPad,CuDef*%
%ADD12RoundRect,0.218750X0.256250X-0.218750X0.256250X0.218750X-0.256250X0.218750X-0.256250X-0.218750X0*%
%TD*%
%TA.AperFunction,ComponentPad*%
%ADD13R,1.700000X1.700000*%
%TD*%
%TA.AperFunction,ComponentPad*%
%ADD14O,1.700000X1.700000*%
%TD*%
%TA.AperFunction,SMDPad,CuDef*%
%ADD15RoundRect,0.200000X0.200000X0.275000X-0.200000X0.275000X-0.200000X-0.275000X0.200000X-0.275000X0*%
%TD*%
%TA.AperFunction,SMDPad,CuDef*%
%ADD16RoundRect,0.162500X0.162500X-0.617500X0.162500X0.617500X-0.162500X0.617500X-0.162500X-0.617500X0*%
%TD*%
%TA.AperFunction,SMDPad,CuDef*%
%ADD17RoundRect,0.225000X-0.250000X0.225000X-0.250000X-0.225000X0.250000X-0.225000X0.250000X0.225000X0*%
%TD*%
%TA.AperFunction,ComponentPad*%
%ADD18O,2.200000X3.500000*%
%TD*%
%TA.AperFunction,ComponentPad*%
%ADD19R,1.500000X2.500000*%
%TD*%
%TA.AperFunction,ComponentPad*%
%ADD20O,1.500000X2.500000*%
%TD*%
%TA.AperFunction,SMDPad,CuDef*%
%ADD21RoundRect,0.218750X-0.256250X0.218750X-0.256250X-0.218750X0.256250X-0.218750X0.256250X0.218750X0*%
%TD*%
%TA.AperFunction,SMDPad,CuDef*%
%ADD22RoundRect,0.200000X-0.200000X-0.275000X0.200000X-0.275000X0.200000X0.275000X-0.200000X0.275000X0*%
%TD*%
%TA.AperFunction,SMDPad,CuDef*%
%ADD23RoundRect,0.150000X0.587500X0.150000X-0.587500X0.150000X-0.587500X-0.150000X0.587500X-0.150000X0*%
%TD*%
%TA.AperFunction,SMDPad,CuDef*%
%ADD24RoundRect,0.200000X0.275000X-0.200000X0.275000X0.200000X-0.275000X0.200000X-0.275000X-0.200000X0*%
%TD*%
%TA.AperFunction,SMDPad,CuDef*%
%ADD25RoundRect,0.200000X-0.275000X0.200000X-0.275000X-0.200000X0.275000X-0.200000X0.275000X0.200000X0*%
%TD*%
%TA.AperFunction,SMDPad,CuDef*%
%ADD26RoundRect,0.225000X-0.225000X-0.250000X0.225000X-0.250000X0.225000X0.250000X-0.225000X0.250000X0*%
%TD*%
%TA.AperFunction,ComponentPad*%
%ADD27R,1.600000X1.600000*%
%TD*%
%TA.AperFunction,ComponentPad*%
%ADD28O,1.600000X1.600000*%
%TD*%
%TA.AperFunction,SMDPad,CuDef*%
%ADD29R,0.300000X0.850000*%
%TD*%
%TA.AperFunction,ComponentPad*%
%ADD30C,1.100000*%
%TD*%
%TA.AperFunction,ViaPad*%
%ADD31C,0.600000*%
%TD*%
%TA.AperFunction,Conductor*%
%ADD32C,0.300000*%
%TD*%
%TA.AperFunction,Conductor*%
%ADD33C,0.400000*%
%TD*%
%TA.AperFunction,Conductor*%
%ADD34C,0.200000*%
%TD*%
G04 APERTURE END LIST*
D10*
%TO.P,BT2,1,+*%
%TO.N,Net-(BT2-+)*%
X84300000Y-51800000D03*
%TO.P,BT2,2,-*%
%TO.N,GND*%
X85550000Y-51800000D03*
D11*
%TO.P,BT2,MP*%
%TO.N,N/C*%
X82050000Y-54500000D03*
X87800000Y-54500000D03*
%TD*%
D12*
%TO.P,D2,1,K*%
%TO.N,Net-(D2-K)*%
X95500000Y-64675000D03*
%TO.P,D2,2,A*%
%TO.N,VCC*%
X95500000Y-63100000D03*
%TD*%
D13*
%TO.P,SW3,1*%
%TO.N,VCC*%
X96080000Y-60100000D03*
D14*
%TO.P,SW3,2*%
%TO.N,laser*%
X93540000Y-60100000D03*
%TO.P,SW3,3*%
%TO.N,N/C*%
X91000000Y-60100000D03*
%TD*%
D15*
%TO.P,C3,1*%
%TO.N,VCC*%
X93125000Y-51100000D03*
%TO.P,C3,2*%
%TO.N,GND*%
X91475000Y-51100000D03*
%TD*%
D16*
%TO.P,U3,1,TS*%
%TO.N,Net-(U3-TS)*%
X73250000Y-61550000D03*
%TO.P,U3,2,OUT*%
%TO.N,Net-(BT2-+)*%
X74200000Y-61550000D03*
%TO.P,U3,3,CHG*%
%TO.N,Net-(U3-CHG)*%
X75150000Y-61550000D03*
%TO.P,U3,4,ISET*%
%TO.N,Net-(U3-ISET)*%
X75150000Y-58850000D03*
%TO.P,U3,5,GND*%
%TO.N,GND*%
X74200000Y-58850000D03*
%TO.P,U3,6,VIN*%
%TO.N,Net-(U3-VIN)*%
X73250000Y-58850000D03*
%TD*%
D17*
%TO.P,C7,1*%
%TO.N,Net-(BT2-+)*%
X75800000Y-63725000D03*
%TO.P,C7,2*%
%TO.N,GND*%
X75800000Y-65275000D03*
%TD*%
%TO.P,C2,1*%
%TO.N,VCC*%
X93700000Y-63050000D03*
%TO.P,C2,2*%
%TO.N,GND*%
X93700000Y-64600000D03*
%TD*%
D15*
%TO.P,C4,1*%
%TO.N,VCC*%
X93125000Y-52700000D03*
%TO.P,C4,2*%
%TO.N,GND*%
X91475000Y-52700000D03*
%TD*%
D18*
%TO.P,SW1,*%
%TO.N,GND*%
X78600000Y-66600000D03*
X86800000Y-66600000D03*
D19*
%TO.P,SW1,1*%
%TO.N,Net-(BT2-+)*%
X80700000Y-66600000D03*
D20*
%TO.P,SW1,2*%
%TO.N,Net-(U1-VI)*%
X82700000Y-66600000D03*
%TO.P,SW1,3*%
%TO.N,N/C*%
X84700000Y-66600000D03*
%TD*%
D21*
%TO.P,D3,1,K*%
%TO.N,Net-(D3-K)*%
X80400000Y-61512500D03*
%TO.P,D3,2,A*%
%TO.N,Net-(BT2-+)*%
X80400000Y-63087500D03*
%TD*%
D22*
%TO.P,R6,1*%
%TO.N,Net-(U3-TS)*%
X72575000Y-63600000D03*
%TO.P,R6,2*%
%TO.N,Net-(BT2-+)*%
X74225000Y-63600000D03*
%TD*%
D13*
%TO.P,SW2,1*%
%TO.N,trigger*%
X107100000Y-51800000D03*
D14*
%TO.P,SW2,2*%
%TO.N,GND*%
X104560000Y-51800000D03*
%TD*%
D23*
%TO.P,U1,1,GND*%
%TO.N,GND*%
X91737500Y-64850000D03*
%TO.P,U1,2,VO*%
%TO.N,VCC*%
X91737500Y-62950000D03*
%TO.P,U1,3,VI*%
%TO.N,Net-(U1-VI)*%
X89862500Y-63900000D03*
%TD*%
D24*
%TO.P,R8,1*%
%TO.N,GND*%
X77000000Y-60125000D03*
%TO.P,R8,2*%
%TO.N,Net-(U3-ISET)*%
X77000000Y-58475000D03*
%TD*%
D25*
%TO.P,R4,1*%
%TO.N,Net-(J3-CC2)*%
X78700000Y-58475000D03*
%TO.P,R4,2*%
%TO.N,GND*%
X78700000Y-60125000D03*
%TD*%
D23*
%TO.P,Q1,1,B*%
%TO.N,Net-(Q1-B)*%
X102200000Y-58100000D03*
%TO.P,Q1,2,E*%
%TO.N,GND*%
X102200000Y-56200000D03*
%TO.P,Q1,3,C*%
%TO.N,Net-(D1-K)*%
X100325000Y-57150000D03*
%TD*%
D15*
%TO.P,R1,1*%
%TO.N,laser*%
X106425000Y-57800000D03*
%TO.P,R1,2*%
%TO.N,Net-(Q1-B)*%
X104775000Y-57800000D03*
%TD*%
D25*
%TO.P,R5,1*%
%TO.N,Net-(J3-CC1)*%
X81000000Y-57475000D03*
%TO.P,R5,2*%
%TO.N,GND*%
X81000000Y-59125000D03*
%TD*%
%TO.P,R2,1*%
%TO.N,VCC*%
X97200000Y-63075000D03*
%TO.P,R2,2*%
%TO.N,trigger*%
X97200000Y-64725000D03*
%TD*%
D22*
%TO.P,R7,1*%
%TO.N,Net-(U3-CHG)*%
X76975000Y-61600000D03*
%TO.P,R7,2*%
%TO.N,Net-(D3-K)*%
X78625000Y-61600000D03*
%TD*%
D26*
%TO.P,C1,1*%
%TO.N,Net-(U1-VI)*%
X90025000Y-66600000D03*
%TO.P,C1,2*%
%TO.N,GND*%
X91575000Y-66600000D03*
%TD*%
D13*
%TO.P,D1,1,K*%
%TO.N,Net-(D1-K)*%
X100200000Y-51825000D03*
D14*
%TO.P,D1,2,A*%
%TO.N,VCC*%
X97660000Y-51825000D03*
%TD*%
D27*
%TO.P,U2,1,~{RESET}/PB5*%
%TO.N,unconnected-(U2-~{RESET}{slash}PB5-Pad1)*%
X99500000Y-67700000D03*
D28*
%TO.P,U2,2,XTAL1/PB3*%
%TO.N,trigger*%
X102040000Y-67700000D03*
%TO.P,U2,3,XTAL2/PB4*%
%TO.N,unconnected-(U2-XTAL2{slash}PB4-Pad3)*%
X104580000Y-67700000D03*
%TO.P,U2,4,GND*%
%TO.N,GND*%
X107120000Y-67700000D03*
%TO.P,U2,5,AREF/PB0*%
%TO.N,laser*%
X107120000Y-60080000D03*
%TO.P,U2,6,PB1*%
%TO.N,unconnected-(U2-PB1-Pad6)*%
X104580000Y-60080000D03*
%TO.P,U2,7,PB2*%
%TO.N,unconnected-(U2-PB2-Pad7)*%
X102040000Y-60080000D03*
%TO.P,U2,8,VCC*%
%TO.N,VCC*%
X99500000Y-60080000D03*
%TD*%
D13*
%TO.P,J1,1,Pin_1*%
%TO.N,Net-(BT2-+)*%
X83850000Y-62075000D03*
D14*
%TO.P,J1,2,Pin_2*%
%TO.N,GND*%
X86390000Y-62075000D03*
%TD*%
D17*
%TO.P,C6,1*%
%TO.N,Net-(U3-VIN)*%
X71500000Y-58525000D03*
%TO.P,C6,2*%
%TO.N,GND*%
X71500000Y-60075000D03*
%TD*%
D29*
%TO.P,J3,A1*%
%TO.N,N/C*%
X71850000Y-52815000D03*
%TO.P,J3,A2*%
X72350000Y-52815000D03*
%TO.P,J3,A3*%
X72850000Y-52815000D03*
%TO.P,J3,A4*%
X73350000Y-52815000D03*
%TO.P,J3,A5,CC1*%
%TO.N,Net-(J3-CC1)*%
X73850000Y-52815000D03*
%TO.P,J3,A6*%
%TO.N,N/C*%
X74350000Y-52815000D03*
%TO.P,J3,A7*%
X74850000Y-52815000D03*
%TO.P,J3,A8*%
X75350000Y-52815000D03*
%TO.P,J3,A9,VBUS*%
%TO.N,Net-(U3-VIN)*%
X75850000Y-52815000D03*
%TO.P,J3,A10*%
%TO.N,N/C*%
X76350000Y-52815000D03*
%TO.P,J3,A11*%
X76850000Y-52815000D03*
%TO.P,J3,A12,GND*%
%TO.N,GND*%
X77350000Y-52815000D03*
%TO.P,J3,B1*%
%TO.N,N/C*%
X77350000Y-54485000D03*
%TO.P,J3,B2*%
X76850000Y-54485000D03*
%TO.P,J3,B3*%
X76350000Y-54485000D03*
%TO.P,J3,B4*%
X75850000Y-54485000D03*
%TO.P,J3,B5,CC2*%
%TO.N,Net-(J3-CC2)*%
X75350000Y-54485000D03*
%TO.P,J3,B6*%
%TO.N,N/C*%
X74850000Y-54485000D03*
%TO.P,J3,B7*%
X74350000Y-54485000D03*
%TO.P,J3,B8*%
X73850000Y-54485000D03*
%TO.P,J3,B9,VBUS*%
%TO.N,Net-(U3-VIN)*%
X73350000Y-54485000D03*
%TO.P,J3,B10*%
%TO.N,N/C*%
X72850000Y-54485000D03*
%TO.P,J3,B11*%
X72350000Y-54485000D03*
%TO.P,J3,B12,GND*%
%TO.N,GND*%
X71850000Y-54485000D03*
D30*
%TO.P,J3,S1,SHIELD*%
X72200000Y-51500000D03*
X72200000Y-55800000D03*
X77000000Y-51500000D03*
X77000000Y-55800000D03*
%TD*%
D25*
%TO.P,R3,1*%
%TO.N,Net-(D2-K)*%
X95500000Y-66275000D03*
%TO.P,R3,2*%
%TO.N,GND*%
X95500000Y-67925000D03*
%TD*%
D31*
%TO.N,GND*%
X89700000Y-51600000D03*
X107000000Y-55600000D03*
X79500000Y-55900000D03*
X88800000Y-61400000D03*
X102800000Y-54900000D03*
X107400000Y-64700000D03*
X94000000Y-67800000D03*
X74500000Y-57300000D03*
X104800000Y-55700000D03*
X81400000Y-60400000D03*
X87600000Y-59500000D03*
X74600000Y-66300000D03*
X88600000Y-57600000D03*
%TD*%
D32*
%TO.N,Net-(U3-VIN)*%
X73350000Y-53710000D02*
X73350000Y-54485000D01*
X73350000Y-54485000D02*
X73350000Y-58750000D01*
X75840000Y-53600000D02*
X73460000Y-53600000D01*
X73460000Y-53600000D02*
X73350000Y-53710000D01*
D33*
X72925000Y-58525000D02*
X73250000Y-58850000D01*
X71500000Y-58525000D02*
X72925000Y-58525000D01*
D32*
X75850000Y-52815000D02*
X75850000Y-53590000D01*
X75850000Y-53590000D02*
X75840000Y-53600000D01*
%TO.N,Net-(D3-K)*%
X78625000Y-61600000D02*
X78637500Y-61612500D01*
X78637500Y-61612500D02*
X80400000Y-61612500D01*
D34*
%TO.N,Net-(Q1-B)*%
X103300000Y-58100000D02*
X102200000Y-58100000D01*
X103600000Y-57800000D02*
X103300000Y-58100000D01*
X104775000Y-57800000D02*
X103600000Y-57800000D01*
%TO.N,laser*%
X107120000Y-58795000D02*
X107120000Y-60080000D01*
X105825000Y-58700000D02*
X106425000Y-58100000D01*
X93540000Y-60100000D02*
X94940000Y-58700000D01*
X106425000Y-58100000D02*
X107120000Y-58795000D01*
X94940000Y-58700000D02*
X105825000Y-58700000D01*
%TO.N,trigger*%
X99265000Y-64725000D02*
X102240000Y-67700000D01*
X102240000Y-67700000D02*
X108220000Y-61720000D01*
X108220000Y-52920000D02*
X107100000Y-51800000D01*
X108220000Y-61720000D02*
X108220000Y-52920000D01*
X97200000Y-64725000D02*
X99265000Y-64725000D01*
D32*
%TO.N,Net-(U3-TS)*%
X72575000Y-63700000D02*
X72575000Y-62225000D01*
X72575000Y-62225000D02*
X73250000Y-61550000D01*
%TO.N,Net-(U3-CHG)*%
X75150000Y-61550000D02*
X76925000Y-61550000D01*
%TO.N,Net-(U3-ISET)*%
X75150000Y-58850000D02*
X75500000Y-58500000D01*
X75500000Y-58500000D02*
X76975000Y-58500000D01*
D34*
%TO.N,Net-(J3-CC1)*%
X73400000Y-51200000D02*
X73950000Y-50650000D01*
X73950000Y-50650000D02*
X78050000Y-50650000D01*
X78050000Y-50650000D02*
X80700000Y-53300000D01*
X73400000Y-51800000D02*
X73400000Y-51200000D01*
X73850000Y-52250000D02*
X73400000Y-51800000D01*
X80700000Y-53300000D02*
X80700000Y-57175000D01*
X80700000Y-57175000D02*
X81000000Y-57475000D01*
X73850000Y-52815000D02*
X73850000Y-52250000D01*
%TO.N,Net-(J3-CC2)*%
X75350000Y-55050000D02*
X75800000Y-55500000D01*
X78275000Y-58475000D02*
X78700000Y-58475000D01*
X75800000Y-56000000D02*
X78275000Y-58475000D01*
X75800000Y-55500000D02*
X75800000Y-56000000D01*
X75350000Y-54485000D02*
X75350000Y-55050000D01*
D32*
%TO.N,Net-(D2-K)*%
X95500000Y-64675000D02*
X95500000Y-66275000D01*
%TD*%
%TA.AperFunction,Conductor*%
%TO.N,VCC*%
G36*
X100743039Y-59120185D02*
G01*
X100788794Y-59172989D01*
X100800000Y-59224500D01*
X100800000Y-61248638D01*
X100780315Y-61315677D01*
X100763681Y-61336319D01*
X98436319Y-63663681D01*
X98374996Y-63697166D01*
X98348638Y-63700000D01*
X91125054Y-63700000D01*
X91058015Y-63680315D01*
X91012260Y-63627511D01*
X91001764Y-63589251D01*
X91000710Y-63579444D01*
X91000000Y-63566193D01*
X91000000Y-61924000D01*
X91019685Y-61856961D01*
X91072489Y-61811206D01*
X91124000Y-61800000D01*
X94000000Y-61800000D01*
X95100000Y-60700000D01*
X95100000Y-59224500D01*
X95119685Y-59157461D01*
X95172489Y-59111706D01*
X95224000Y-59100500D01*
X100676000Y-59100500D01*
X100743039Y-59120185D01*
G37*
%TD.AperFunction*%
%TD*%
%TA.AperFunction,Conductor*%
%TO.N,Net-(U1-VI)*%
G36*
X90643039Y-63519685D02*
G01*
X90688794Y-63572489D01*
X90700000Y-63624000D01*
X90700000Y-64634602D01*
X90699614Y-64642837D01*
X90699635Y-64642838D01*
X90699500Y-64645723D01*
X90699500Y-65054277D01*
X90699635Y-65057163D01*
X90699614Y-65057163D01*
X90700000Y-65065398D01*
X90700000Y-67076000D01*
X90680315Y-67143039D01*
X90627511Y-67188794D01*
X90576000Y-67200000D01*
X89324000Y-67200000D01*
X89256961Y-67180315D01*
X89211206Y-67127511D01*
X89200000Y-67076000D01*
X89200000Y-66400000D01*
X87957412Y-65157412D01*
X87942357Y-65139167D01*
X87893584Y-65067004D01*
X87893582Y-65067002D01*
X87893579Y-65066997D01*
X87728621Y-64894882D01*
X87536947Y-64753121D01*
X87324074Y-64645793D01*
X87194283Y-64606045D01*
X87096121Y-64575983D01*
X86859647Y-64545701D01*
X86621471Y-64555819D01*
X86621467Y-64555819D01*
X86388419Y-64606045D01*
X86167211Y-64694935D01*
X85964203Y-64819932D01*
X85908356Y-64869084D01*
X85845026Y-64898598D01*
X85826433Y-64900000D01*
X84399999Y-64900000D01*
X83500000Y-65799999D01*
X83500000Y-67876000D01*
X83480315Y-67943039D01*
X83427511Y-67988794D01*
X83376000Y-68000000D01*
X82024000Y-68000000D01*
X81956961Y-67980315D01*
X81911206Y-67927511D01*
X81900000Y-67876000D01*
X81900000Y-65483403D01*
X81919685Y-65416364D01*
X81936319Y-65395722D01*
X83790222Y-63541819D01*
X83851545Y-63508334D01*
X83877903Y-63505500D01*
X84675990Y-63505500D01*
X84676000Y-63505500D01*
X84716762Y-63501117D01*
X84720554Y-63500710D01*
X84733807Y-63500000D01*
X90576000Y-63500000D01*
X90643039Y-63519685D01*
G37*
%TD.AperFunction*%
%TD*%
%TA.AperFunction,Conductor*%
%TO.N,Net-(D1-K)*%
G36*
X101143039Y-50619685D02*
G01*
X101188794Y-50672489D01*
X101200000Y-50724000D01*
X101200000Y-55843789D01*
X101193042Y-55884743D01*
X101164853Y-55965302D01*
X101162000Y-55995730D01*
X101162000Y-56404269D01*
X101164853Y-56434698D01*
X101177997Y-56472261D01*
X101193041Y-56515255D01*
X101200000Y-56556207D01*
X101200000Y-57376000D01*
X101180315Y-57443039D01*
X101127511Y-57488794D01*
X101076000Y-57500000D01*
X99324000Y-57500000D01*
X99256961Y-57480315D01*
X99211206Y-57427511D01*
X99200000Y-57376000D01*
X99200000Y-50724000D01*
X99219685Y-50656961D01*
X99272489Y-50611206D01*
X99324000Y-50600000D01*
X101076000Y-50600000D01*
X101143039Y-50619685D01*
G37*
%TD.AperFunction*%
%TD*%
%TA.AperFunction,Conductor*%
%TO.N,VCC*%
G36*
X98543039Y-50644685D02*
G01*
X98588794Y-50697489D01*
X98600000Y-50749000D01*
X98600000Y-53201000D01*
X98580315Y-53268039D01*
X98527511Y-53313794D01*
X98476000Y-53325000D01*
X92724000Y-53325000D01*
X92656961Y-53305315D01*
X92611206Y-53252511D01*
X92600000Y-53201000D01*
X92600000Y-50749000D01*
X92619685Y-50681961D01*
X92672489Y-50636206D01*
X92724000Y-50625000D01*
X98476000Y-50625000D01*
X98543039Y-50644685D01*
G37*
%TD.AperFunction*%
%TD*%
%TA.AperFunction,Conductor*%
%TO.N,Net-(BT2-+)*%
G36*
X84743039Y-50719685D02*
G01*
X84788794Y-50772489D01*
X84800000Y-50824000D01*
X84800000Y-63076000D01*
X84780315Y-63143039D01*
X84727511Y-63188794D01*
X84676000Y-63200000D01*
X83699999Y-63200000D01*
X81500000Y-65399999D01*
X81500000Y-67876000D01*
X81480315Y-67943039D01*
X81427511Y-67988794D01*
X81376000Y-68000000D01*
X80024000Y-68000000D01*
X79956961Y-67980315D01*
X79911206Y-67927511D01*
X79900000Y-67876000D01*
X79900000Y-67795846D01*
X79907082Y-67754539D01*
X79960211Y-67604171D01*
X79991395Y-67422303D01*
X80000499Y-67369210D01*
X80000500Y-67369198D01*
X80000500Y-65890503D01*
X80000499Y-65890484D01*
X79985347Y-65712463D01*
X79980622Y-65694318D01*
X79925275Y-65481751D01*
X79925274Y-65481747D01*
X79911008Y-65450187D01*
X79900399Y-65400964D01*
X79900000Y-65400001D01*
X79900000Y-65400000D01*
X79894680Y-65394680D01*
X79869371Y-65358078D01*
X79827077Y-65264514D01*
X79827077Y-65264513D01*
X79827075Y-65264511D01*
X79693586Y-65067006D01*
X79693582Y-65067001D01*
X79693579Y-65066997D01*
X79528621Y-64894882D01*
X79336947Y-64753121D01*
X79185653Y-64676840D01*
X79153799Y-64653799D01*
X78700000Y-64200000D01*
X73924000Y-64200000D01*
X73856961Y-64180315D01*
X73811206Y-64127511D01*
X73800000Y-64076000D01*
X73800000Y-62462956D01*
X73819685Y-62395917D01*
X73824231Y-62389321D01*
X73826465Y-62386294D01*
X73826469Y-62386289D01*
X73850086Y-62318796D01*
X73872567Y-62254551D01*
X73872567Y-62254549D01*
X73875500Y-62223276D01*
X73875500Y-60876723D01*
X73871863Y-60837938D01*
X73874566Y-60837684D01*
X73878581Y-60780779D01*
X73920398Y-60724805D01*
X73985839Y-60700325D01*
X73994805Y-60700000D01*
X74405195Y-60700000D01*
X74472234Y-60719685D01*
X74517989Y-60772489D01*
X74527389Y-60837867D01*
X74528137Y-60837938D01*
X74527845Y-60841041D01*
X74527933Y-60841647D01*
X74527634Y-60843297D01*
X74524500Y-60876723D01*
X74524500Y-62223276D01*
X74527432Y-62254549D01*
X74527432Y-62254551D01*
X74573529Y-62386285D01*
X74573534Y-62386294D01*
X74656410Y-62498588D01*
X74656411Y-62498589D01*
X74768705Y-62581465D01*
X74768707Y-62581466D01*
X74768711Y-62581469D01*
X74768714Y-62581470D01*
X74900449Y-62627567D01*
X74931724Y-62630500D01*
X74931728Y-62630500D01*
X75368276Y-62630500D01*
X75386144Y-62628824D01*
X75399549Y-62627567D01*
X75458446Y-62606958D01*
X75499401Y-62600000D01*
X81200000Y-62600000D01*
X83100000Y-60700000D01*
X83100000Y-55803917D01*
X83110565Y-55753832D01*
X83147585Y-55669991D01*
X83150500Y-55644865D01*
X83150499Y-53355136D01*
X83150497Y-53355117D01*
X83147586Y-53330012D01*
X83147585Y-53330010D01*
X83147585Y-53330009D01*
X83110566Y-53246168D01*
X83100000Y-53196082D01*
X83100000Y-50824000D01*
X83119685Y-50756961D01*
X83172489Y-50711206D01*
X83224000Y-50700000D01*
X84676000Y-50700000D01*
X84743039Y-50719685D01*
G37*
%TD.AperFunction*%
%TD*%
%TA.AperFunction,Conductor*%
%TO.N,GND*%
G36*
X77899784Y-51070185D02*
G01*
X77920426Y-51086819D01*
X80263181Y-53429574D01*
X80296666Y-53490897D01*
X80299500Y-53517255D01*
X80299500Y-56967513D01*
X80284333Y-57026939D01*
X80281203Y-57032670D01*
X80230933Y-57167452D01*
X80230909Y-57167517D01*
X80224500Y-57227127D01*
X80224500Y-57227134D01*
X80224500Y-57227135D01*
X80224500Y-57722870D01*
X80224501Y-57722876D01*
X80230908Y-57782483D01*
X80281202Y-57917328D01*
X80281206Y-57917335D01*
X80367452Y-58032544D01*
X80367455Y-58032547D01*
X80482664Y-58118793D01*
X80482671Y-58118797D01*
X80493613Y-58122878D01*
X80617517Y-58169091D01*
X80677127Y-58175500D01*
X81322872Y-58175499D01*
X81382483Y-58169091D01*
X81517331Y-58118796D01*
X81632546Y-58032546D01*
X81718796Y-57917331D01*
X81769091Y-57782483D01*
X81775500Y-57722873D01*
X81775499Y-57227128D01*
X81769091Y-57167517D01*
X81736898Y-57081204D01*
X81718797Y-57032671D01*
X81718793Y-57032664D01*
X81632547Y-56917455D01*
X81632544Y-56917452D01*
X81517335Y-56831206D01*
X81517328Y-56831202D01*
X81382482Y-56780908D01*
X81382483Y-56780908D01*
X81322883Y-56774501D01*
X81322881Y-56774500D01*
X81322873Y-56774500D01*
X81322865Y-56774500D01*
X81224500Y-56774500D01*
X81157461Y-56754815D01*
X81111706Y-56702011D01*
X81100500Y-56650500D01*
X81100500Y-56024499D01*
X81120185Y-55957460D01*
X81172989Y-55911705D01*
X81224495Y-55900499D01*
X82670500Y-55900499D01*
X82737539Y-55920184D01*
X82783294Y-55972988D01*
X82794500Y-56024499D01*
X82794500Y-60522096D01*
X82774815Y-60589135D01*
X82758181Y-60609777D01*
X81361399Y-62006558D01*
X81300076Y-62040043D01*
X81230384Y-62035059D01*
X81174451Y-61993187D01*
X81150034Y-61927723D01*
X81158364Y-61873387D01*
X81165479Y-61855346D01*
X81175500Y-61771902D01*
X81175500Y-61253098D01*
X81165479Y-61169654D01*
X81113115Y-61036868D01*
X81113113Y-61036865D01*
X81026867Y-60923132D01*
X80913134Y-60836886D01*
X80913132Y-60836885D01*
X80780346Y-60784521D01*
X80780345Y-60784520D01*
X80780343Y-60784520D01*
X80696902Y-60774500D01*
X80103098Y-60774500D01*
X80019656Y-60784520D01*
X80019655Y-60784520D01*
X79886865Y-60836886D01*
X79773132Y-60923132D01*
X79686885Y-61036866D01*
X79678370Y-61058460D01*
X79668662Y-61083080D01*
X79668500Y-61083490D01*
X79625594Y-61138634D01*
X79559686Y-61161827D01*
X79553145Y-61162000D01*
X79384479Y-61162000D01*
X79317440Y-61142315D01*
X79271685Y-61089511D01*
X79269020Y-61083080D01*
X79268794Y-61082665D01*
X79182547Y-60967455D01*
X79182544Y-60967452D01*
X79067335Y-60881206D01*
X79067328Y-60881202D01*
X78932486Y-60830910D01*
X78932485Y-60830909D01*
X78932483Y-60830909D01*
X78872873Y-60824500D01*
X78872863Y-60824500D01*
X78377129Y-60824500D01*
X78377123Y-60824501D01*
X78317516Y-60830908D01*
X78182671Y-60881202D01*
X78182664Y-60881206D01*
X78067455Y-60967452D01*
X78067452Y-60967455D01*
X77981206Y-61082664D01*
X77981202Y-61082671D01*
X77931540Y-61215825D01*
X77930909Y-61217517D01*
X77924500Y-61277127D01*
X77924500Y-61277134D01*
X77924500Y-61277135D01*
X77924500Y-61922870D01*
X77924501Y-61922876D01*
X77930908Y-61982483D01*
X77984303Y-62125641D01*
X77981208Y-62126795D01*
X77992637Y-62179362D01*
X77968211Y-62244823D01*
X77912272Y-62286687D01*
X77868954Y-62294500D01*
X77731046Y-62294500D01*
X77664007Y-62274815D01*
X77618252Y-62222011D01*
X77608308Y-62152853D01*
X77617179Y-62126193D01*
X77615697Y-62125641D01*
X77641126Y-62057461D01*
X77669091Y-61982483D01*
X77675500Y-61922873D01*
X77675499Y-61277128D01*
X77669091Y-61217517D01*
X77666779Y-61211319D01*
X77618797Y-61082671D01*
X77618793Y-61082664D01*
X77532547Y-60967455D01*
X77532544Y-60967452D01*
X77417335Y-60881206D01*
X77417328Y-60881202D01*
X77282486Y-60830910D01*
X77282485Y-60830909D01*
X77282483Y-60830909D01*
X77222873Y-60824500D01*
X77222863Y-60824500D01*
X76727129Y-60824500D01*
X76727123Y-60824501D01*
X76667516Y-60830908D01*
X76532671Y-60881202D01*
X76532664Y-60881206D01*
X76417456Y-60967452D01*
X76417455Y-60967453D01*
X76417454Y-60967454D01*
X76365491Y-61036868D01*
X76355802Y-61049811D01*
X76299868Y-61091682D01*
X76256535Y-61099500D01*
X75899500Y-61099500D01*
X75832461Y-61079815D01*
X75786706Y-61027011D01*
X75775500Y-60975500D01*
X75775500Y-60876723D01*
X75772567Y-60845450D01*
X75772567Y-60845448D01*
X75726470Y-60713714D01*
X75726469Y-60713711D01*
X75722442Y-60708255D01*
X75643589Y-60601411D01*
X75643588Y-60601410D01*
X75531294Y-60518534D01*
X75531285Y-60518529D01*
X75399550Y-60472432D01*
X75368276Y-60469500D01*
X75368272Y-60469500D01*
X74931728Y-60469500D01*
X74931724Y-60469500D01*
X74900450Y-60472432D01*
X74900448Y-60472433D01*
X74791188Y-60510665D01*
X74721409Y-60514227D01*
X74665167Y-60483844D01*
X74658382Y-60477447D01*
X74558306Y-60426561D01*
X74558305Y-60426560D01*
X74558304Y-60426560D01*
X74491273Y-60406877D01*
X74491267Y-60406876D01*
X74405195Y-60394500D01*
X73994805Y-60394500D01*
X73987058Y-60394640D01*
X73983726Y-60394701D01*
X73974770Y-60395026D01*
X73878804Y-60414189D01*
X73878800Y-60414190D01*
X73813373Y-60438664D01*
X73813368Y-60438667D01*
X73813364Y-60438668D01*
X73813361Y-60438670D01*
X73786513Y-60451930D01*
X73758229Y-60465900D01*
X73736607Y-60485818D01*
X73673962Y-60516759D01*
X73611641Y-60511655D01*
X73499551Y-60472433D01*
X73499549Y-60472432D01*
X73468276Y-60469500D01*
X73468272Y-60469500D01*
X73031728Y-60469500D01*
X73031724Y-60469500D01*
X73000450Y-60472432D01*
X73000448Y-60472432D01*
X72868714Y-60518529D01*
X72868705Y-60518534D01*
X72756411Y-60601410D01*
X72756410Y-60601411D01*
X72673534Y-60713705D01*
X72673529Y-60713714D01*
X72627432Y-60845448D01*
X72627432Y-60845450D01*
X72624500Y-60876723D01*
X72624500Y-61487034D01*
X72604815Y-61554073D01*
X72588181Y-61574715D01*
X72279263Y-61883632D01*
X72268898Y-61892895D01*
X72241033Y-61915117D01*
X72241030Y-61915121D01*
X72208823Y-61962357D01*
X72206144Y-61966132D01*
X72172206Y-62012118D01*
X72168216Y-62019667D01*
X72164528Y-62027325D01*
X72147673Y-62081967D01*
X72146225Y-62086368D01*
X72127353Y-62140304D01*
X72125771Y-62148659D01*
X72124500Y-62157100D01*
X72124500Y-62214260D01*
X72124413Y-62218897D01*
X72122275Y-62276009D01*
X72123316Y-62285243D01*
X72122485Y-62285336D01*
X72124500Y-62300635D01*
X72124500Y-62825249D01*
X72104815Y-62892288D01*
X72074812Y-62924515D01*
X72017457Y-62967451D01*
X72017451Y-62967457D01*
X71931206Y-63082664D01*
X71931202Y-63082671D01*
X71880910Y-63217513D01*
X71880909Y-63217517D01*
X71874500Y-63277127D01*
X71874500Y-63277134D01*
X71874500Y-63277135D01*
X71874500Y-63922870D01*
X71874501Y-63922876D01*
X71880908Y-63982483D01*
X71931202Y-64117328D01*
X71931206Y-64117335D01*
X72017452Y-64232544D01*
X72017455Y-64232547D01*
X72132664Y-64318793D01*
X72132671Y-64318797D01*
X72156188Y-64327568D01*
X72267517Y-64369091D01*
X72327127Y-64375500D01*
X72822872Y-64375499D01*
X72882483Y-64369091D01*
X73017331Y-64318796D01*
X73132546Y-64232546D01*
X73218796Y-64117331D01*
X73254318Y-64022092D01*
X73296189Y-63966158D01*
X73361653Y-63941741D01*
X73429926Y-63956592D01*
X73479332Y-64005997D01*
X73494500Y-64065425D01*
X73494500Y-64076000D01*
X73494501Y-64076009D01*
X73501481Y-64140935D01*
X73501483Y-64140947D01*
X73512688Y-64192453D01*
X73523644Y-64230654D01*
X73523646Y-64230658D01*
X73578529Y-64324501D01*
X73580325Y-64327571D01*
X73611634Y-64363704D01*
X73626081Y-64380376D01*
X73626091Y-64380387D01*
X73670807Y-64422548D01*
X73670809Y-64422549D01*
X73670813Y-64422553D01*
X73770889Y-64473439D01*
X73837928Y-64493124D01*
X73924000Y-64505500D01*
X78522096Y-64505500D01*
X78589135Y-64525185D01*
X78609777Y-64541819D01*
X78937778Y-64869820D01*
X78974751Y-64901331D01*
X78974754Y-64901333D01*
X78974762Y-64901339D01*
X79006609Y-64924375D01*
X79048111Y-64949627D01*
X79048119Y-64949631D01*
X79166769Y-65009452D01*
X79184670Y-65020473D01*
X79317572Y-65118766D01*
X79333355Y-65132658D01*
X79447726Y-65251992D01*
X79460938Y-65268355D01*
X79553496Y-65405299D01*
X79563753Y-65423659D01*
X79590988Y-65483909D01*
X79612003Y-65521064D01*
X79621836Y-65543287D01*
X79632628Y-65576024D01*
X79633821Y-65579087D01*
X79633572Y-65579183D01*
X79638840Y-65594097D01*
X79645498Y-65619666D01*
X79649500Y-65650913D01*
X79649500Y-67545269D01*
X79642417Y-67586576D01*
X79619034Y-67652759D01*
X79619029Y-67652773D01*
X79605975Y-67702912D01*
X79598894Y-67744215D01*
X79598892Y-67744230D01*
X79594500Y-67795826D01*
X79594500Y-67795846D01*
X79594500Y-67876000D01*
X79594501Y-67876009D01*
X79601481Y-67940935D01*
X79601483Y-67940947D01*
X79612688Y-67992453D01*
X79623644Y-68030654D01*
X79623646Y-68030658D01*
X79680323Y-68127568D01*
X79680325Y-68127571D01*
X79726081Y-68180376D01*
X79726091Y-68180387D01*
X79770807Y-68222548D01*
X79770809Y-68222549D01*
X79770813Y-68222553D01*
X79854230Y-68264968D01*
X79905066Y-68312900D01*
X79921919Y-68380707D01*
X79899437Y-68446860D01*
X79844758Y-68490358D01*
X79798028Y-68499500D01*
X72868482Y-68499500D01*
X72801443Y-68479815D01*
X72755688Y-68427011D01*
X72745744Y-68357853D01*
X72764672Y-68307680D01*
X72824173Y-68216607D01*
X72924063Y-67988881D01*
X72985108Y-67747821D01*
X72988829Y-67702915D01*
X73005643Y-67500005D01*
X73005643Y-67499994D01*
X72985109Y-67252187D01*
X72985107Y-67252175D01*
X72924063Y-67011118D01*
X72824173Y-66783393D01*
X72688164Y-66575215D01*
X72642151Y-66525232D01*
X72519744Y-66392262D01*
X72323509Y-66239526D01*
X72323507Y-66239525D01*
X72323506Y-66239524D01*
X72104811Y-66121172D01*
X72104802Y-66121169D01*
X71869616Y-66040429D01*
X71624335Y-65999500D01*
X71375665Y-65999500D01*
X71130383Y-66040429D01*
X70895197Y-66121169D01*
X70895183Y-66121175D01*
X70683517Y-66235723D01*
X70615189Y-66250318D01*
X70549817Y-66225655D01*
X70508156Y-66169564D01*
X70500500Y-66126668D01*
X70500500Y-58934300D01*
X70520185Y-58867261D01*
X70572989Y-58821506D01*
X70642147Y-58811562D01*
X70705703Y-58840587D01*
X70739853Y-58888807D01*
X70763788Y-58949500D01*
X70787636Y-59009976D01*
X70874921Y-59125078D01*
X70990023Y-59212363D01*
X70990024Y-59212363D01*
X70990025Y-59212364D01*
X71124410Y-59265359D01*
X71208856Y-59275500D01*
X71208862Y-59275500D01*
X71791138Y-59275500D01*
X71791144Y-59275500D01*
X71875590Y-59265359D01*
X72009975Y-59212364D01*
X72125078Y-59125078D01*
X72129844Y-59118793D01*
X72163378Y-59074574D01*
X72219571Y-59033051D01*
X72262181Y-59025500D01*
X72500500Y-59025500D01*
X72567539Y-59045185D01*
X72613294Y-59097989D01*
X72624500Y-59149500D01*
X72624500Y-59523276D01*
X72627432Y-59554549D01*
X72627432Y-59554551D01*
X72673529Y-59686285D01*
X72673534Y-59686294D01*
X72756410Y-59798588D01*
X72756411Y-59798589D01*
X72868705Y-59881465D01*
X72868707Y-59881466D01*
X72868711Y-59881469D01*
X72868714Y-59881470D01*
X73000449Y-59927567D01*
X73031724Y-59930500D01*
X73031728Y-59930500D01*
X73468276Y-59930500D01*
X73499549Y-59927567D01*
X73499551Y-59927567D01*
X73613513Y-59887689D01*
X73631289Y-59881469D01*
X73743589Y-59798589D01*
X73826469Y-59686289D01*
X73843226Y-59638399D01*
X73872567Y-59554551D01*
X73872567Y-59554549D01*
X73875500Y-59523276D01*
X73875500Y-58176723D01*
X73872567Y-58145450D01*
X73872566Y-58145448D01*
X73826470Y-58013712D01*
X73824727Y-58011350D01*
X73823620Y-58008319D01*
X73822128Y-58005496D01*
X73822514Y-58005291D01*
X73800758Y-57945720D01*
X73800500Y-57937720D01*
X73800500Y-56274000D01*
X73820185Y-56206961D01*
X73872989Y-56161206D01*
X73924500Y-56150000D01*
X75350755Y-56150000D01*
X75417794Y-56169685D01*
X75451096Y-56201146D01*
X75451748Y-56202044D01*
X75461890Y-56218600D01*
X75471949Y-56238340D01*
X75471950Y-56238342D01*
X75491390Y-56257782D01*
X75491419Y-56257813D01*
X76796426Y-57562819D01*
X76829911Y-57624142D01*
X76824927Y-57693834D01*
X76783055Y-57749767D01*
X76717591Y-57774184D01*
X76708749Y-57774500D01*
X76677131Y-57774500D01*
X76677123Y-57774501D01*
X76617516Y-57780908D01*
X76482671Y-57831202D01*
X76482664Y-57831206D01*
X76367456Y-57917452D01*
X76367455Y-57917453D01*
X76367454Y-57917454D01*
X76305802Y-57999811D01*
X76249868Y-58041682D01*
X76206535Y-58049500D01*
X75815481Y-58049500D01*
X75748442Y-58029815D01*
X75715711Y-57999133D01*
X75643589Y-57901411D01*
X75643588Y-57901410D01*
X75531294Y-57818534D01*
X75531285Y-57818529D01*
X75399550Y-57772432D01*
X75368276Y-57769500D01*
X75368272Y-57769500D01*
X74931728Y-57769500D01*
X74931724Y-57769500D01*
X74900450Y-57772432D01*
X74900448Y-57772432D01*
X74768714Y-57818529D01*
X74768705Y-57818534D01*
X74656411Y-57901410D01*
X74656410Y-57901411D01*
X74573534Y-58013705D01*
X74573529Y-58013714D01*
X74527432Y-58145448D01*
X74527432Y-58145450D01*
X74524500Y-58176723D01*
X74524500Y-59523276D01*
X74527432Y-59554549D01*
X74527432Y-59554551D01*
X74573529Y-59686285D01*
X74573534Y-59686294D01*
X74656410Y-59798588D01*
X74656411Y-59798589D01*
X74768705Y-59881465D01*
X74768707Y-59881466D01*
X74768711Y-59881469D01*
X74768714Y-59881470D01*
X74900449Y-59927567D01*
X74931724Y-59930500D01*
X74931728Y-59930500D01*
X75368276Y-59930500D01*
X75399549Y-59927567D01*
X75399551Y-59927567D01*
X75513513Y-59887689D01*
X75531289Y-59881469D01*
X75643589Y-59798589D01*
X75726469Y-59686289D01*
X75743226Y-59638399D01*
X75772567Y-59554551D01*
X75772567Y-59554549D01*
X75775500Y-59523276D01*
X75775500Y-59074500D01*
X75795185Y-59007461D01*
X75847989Y-58961706D01*
X75899500Y-58950500D01*
X76243965Y-58950500D01*
X76311004Y-58970185D01*
X76343232Y-59000190D01*
X76367449Y-59032541D01*
X76367452Y-59032544D01*
X76367454Y-59032546D01*
X76367457Y-59032548D01*
X76482664Y-59118793D01*
X76482671Y-59118797D01*
X76499509Y-59125077D01*
X76617517Y-59169091D01*
X76677127Y-59175500D01*
X77322872Y-59175499D01*
X77382483Y-59169091D01*
X77517331Y-59118796D01*
X77632546Y-59032546D01*
X77718796Y-58917331D01*
X77718798Y-58917326D01*
X77733818Y-58877056D01*
X77775688Y-58821122D01*
X77841153Y-58796704D01*
X77909426Y-58811555D01*
X77958832Y-58860960D01*
X77966182Y-58877056D01*
X77981201Y-58917326D01*
X77981206Y-58917335D01*
X78067452Y-59032544D01*
X78067455Y-59032547D01*
X78182664Y-59118793D01*
X78182671Y-59118797D01*
X78199509Y-59125077D01*
X78317517Y-59169091D01*
X78377127Y-59175500D01*
X79022872Y-59175499D01*
X79082483Y-59169091D01*
X79217331Y-59118796D01*
X79332546Y-59032546D01*
X79418796Y-58917331D01*
X79469091Y-58782483D01*
X79475500Y-58722873D01*
X79475499Y-58227128D01*
X79469091Y-58167517D01*
X79452443Y-58122882D01*
X79418797Y-58032671D01*
X79418793Y-58032664D01*
X79332547Y-57917455D01*
X79332544Y-57917452D01*
X79217335Y-57831206D01*
X79217328Y-57831202D01*
X79082486Y-57780910D01*
X79082485Y-57780909D01*
X79082483Y-57780909D01*
X79022873Y-57774500D01*
X79022863Y-57774500D01*
X78377129Y-57774500D01*
X78377123Y-57774501D01*
X78317518Y-57780908D01*
X78268204Y-57799301D01*
X78198513Y-57804284D01*
X78137192Y-57770799D01*
X76236819Y-55870426D01*
X76203334Y-55809103D01*
X76200500Y-55782745D01*
X76200500Y-55436568D01*
X76200500Y-55436567D01*
X76193652Y-55415491D01*
X76189111Y-55396578D01*
X76185646Y-55374696D01*
X76185038Y-55372826D01*
X76184969Y-55370422D01*
X76184119Y-55365054D01*
X76184812Y-55364944D01*
X76183038Y-55302985D01*
X76219114Y-55243149D01*
X76281812Y-55212317D01*
X76302958Y-55210499D01*
X76544864Y-55210499D01*
X76544879Y-55210497D01*
X76544882Y-55210497D01*
X76579258Y-55206511D01*
X76579463Y-55208281D01*
X76620540Y-55208281D01*
X76620745Y-55206510D01*
X76630007Y-55207584D01*
X76630009Y-55207585D01*
X76655135Y-55210500D01*
X77044864Y-55210499D01*
X77044879Y-55210497D01*
X77044882Y-55210497D01*
X77079258Y-55206511D01*
X77079463Y-55208281D01*
X77120540Y-55208281D01*
X77120745Y-55206510D01*
X77130007Y-55207584D01*
X77130009Y-55207585D01*
X77155135Y-55210500D01*
X77544864Y-55210499D01*
X77544879Y-55210497D01*
X77544882Y-55210497D01*
X77569987Y-55207586D01*
X77569988Y-55207585D01*
X77569991Y-55207585D01*
X77672765Y-55162206D01*
X77752206Y-55082765D01*
X77797585Y-54979991D01*
X77800500Y-54954865D01*
X77800499Y-54279708D01*
X77820183Y-54212670D01*
X77872987Y-54166915D01*
X77942146Y-54156971D01*
X77957933Y-54160302D01*
X78065710Y-54190500D01*
X78065712Y-54190500D01*
X78596975Y-54190500D01*
X78624529Y-54186712D01*
X78707196Y-54175350D01*
X78843476Y-54116156D01*
X78958731Y-54022389D01*
X79014942Y-53942756D01*
X79044413Y-53901005D01*
X79049307Y-53887235D01*
X79094171Y-53761002D01*
X79104310Y-53612768D01*
X79074081Y-53467296D01*
X79005724Y-53335374D01*
X79005721Y-53335371D01*
X79005720Y-53335369D01*
X78904309Y-53226785D01*
X78777362Y-53149587D01*
X78777361Y-53149586D01*
X78777360Y-53149586D01*
X78634290Y-53109500D01*
X78103026Y-53109500D01*
X78103025Y-53109500D01*
X77992806Y-53124649D01*
X77992800Y-53124651D01*
X77856525Y-53183843D01*
X77741269Y-53277610D01*
X77741263Y-53277617D01*
X77655586Y-53398994D01*
X77605829Y-53538996D01*
X77598649Y-53643963D01*
X77574435Y-53709502D01*
X77518632Y-53751547D01*
X77474938Y-53759500D01*
X77155222Y-53759500D01*
X77088183Y-53739815D01*
X77042428Y-53687011D01*
X77032484Y-53617853D01*
X77061509Y-53554297D01*
X77105131Y-53522068D01*
X77172765Y-53492206D01*
X77252206Y-53412765D01*
X77297585Y-53309991D01*
X77300500Y-53284865D01*
X77300499Y-52345136D01*
X77299062Y-52332745D01*
X77297586Y-52320012D01*
X77297585Y-52320010D01*
X77297585Y-52320009D01*
X77252206Y-52217235D01*
X77172765Y-52137794D01*
X77172763Y-52137793D01*
X77069992Y-52092415D01*
X77044865Y-52089500D01*
X76655143Y-52089500D01*
X76655117Y-52089502D01*
X76620742Y-52093489D01*
X76620537Y-52091727D01*
X76579459Y-52091725D01*
X76579255Y-52093490D01*
X76569991Y-52092415D01*
X76544865Y-52089500D01*
X76155143Y-52089500D01*
X76155117Y-52089502D01*
X76120742Y-52093489D01*
X76120537Y-52091727D01*
X76079459Y-52091725D01*
X76079255Y-52093490D01*
X76069991Y-52092415D01*
X76044865Y-52089500D01*
X75655143Y-52089500D01*
X75655117Y-52089502D01*
X75620742Y-52093489D01*
X75620537Y-52091727D01*
X75579459Y-52091725D01*
X75579255Y-52093490D01*
X75569991Y-52092415D01*
X75564044Y-52091725D01*
X75544868Y-52089500D01*
X75459861Y-52089500D01*
X75392822Y-52069815D01*
X75347067Y-52017011D01*
X75337123Y-51947853D01*
X75366148Y-51884297D01*
X75372180Y-51877818D01*
X75399998Y-51850000D01*
X75400000Y-51850000D01*
X75400000Y-51174500D01*
X75419685Y-51107461D01*
X75472489Y-51061706D01*
X75524000Y-51050500D01*
X77832745Y-51050500D01*
X77899784Y-51070185D01*
G37*
%TD.AperFunction*%
%TA.AperFunction,Conductor*%
G36*
X94751285Y-64025185D02*
G01*
X94797040Y-64077989D01*
X94806984Y-64147147D01*
X94788783Y-64190702D01*
X94791043Y-64191973D01*
X94786886Y-64199365D01*
X94734520Y-64332155D01*
X94734520Y-64332156D01*
X94724500Y-64415597D01*
X94724500Y-64934402D01*
X94734520Y-65017843D01*
X94734520Y-65017844D01*
X94734521Y-65017846D01*
X94785054Y-65145990D01*
X94786886Y-65150634D01*
X94873132Y-65264367D01*
X94993626Y-65355740D01*
X94992738Y-65356910D01*
X95035056Y-65400284D01*
X95049500Y-65458366D01*
X95049500Y-65521138D01*
X95029815Y-65588177D01*
X94989581Y-65625637D01*
X94989769Y-65625888D01*
X94987441Y-65627630D01*
X94984932Y-65629967D01*
X94982670Y-65631202D01*
X94867455Y-65717452D01*
X94867452Y-65717455D01*
X94781206Y-65832664D01*
X94781202Y-65832671D01*
X94730910Y-65967513D01*
X94730909Y-65967517D01*
X94724500Y-66027127D01*
X94724500Y-66027134D01*
X94724500Y-66027135D01*
X94724500Y-66522870D01*
X94724501Y-66522876D01*
X94730908Y-66582483D01*
X94781202Y-66717328D01*
X94781206Y-66717335D01*
X94867452Y-66832544D01*
X94867455Y-66832547D01*
X94982664Y-66918793D01*
X94982671Y-66918797D01*
X95002662Y-66926253D01*
X95117517Y-66969091D01*
X95177127Y-66975500D01*
X95822872Y-66975499D01*
X95882483Y-66969091D01*
X96017331Y-66918796D01*
X96132546Y-66832546D01*
X96218796Y-66717331D01*
X96269091Y-66582483D01*
X96275500Y-66522873D01*
X96275499Y-66027128D01*
X96269091Y-65967517D01*
X96218796Y-65832669D01*
X96218795Y-65832668D01*
X96218793Y-65832664D01*
X96132547Y-65717455D01*
X96132544Y-65717452D01*
X96017329Y-65631202D01*
X96015068Y-65629967D01*
X96013246Y-65628145D01*
X96010231Y-65625888D01*
X96010555Y-65625454D01*
X95965665Y-65580559D01*
X95950500Y-65521138D01*
X95950500Y-65458366D01*
X95970185Y-65391327D01*
X96007026Y-65356599D01*
X96006374Y-65355740D01*
X96126867Y-65264367D01*
X96130474Y-65259611D01*
X96213115Y-65150632D01*
X96229113Y-65110063D01*
X96272018Y-65054921D01*
X96337925Y-65031727D01*
X96405910Y-65047847D01*
X96454387Y-65098164D01*
X96460649Y-65112221D01*
X96481202Y-65167328D01*
X96481206Y-65167335D01*
X96567452Y-65282544D01*
X96567455Y-65282547D01*
X96682664Y-65368793D01*
X96682671Y-65368797D01*
X96695085Y-65373427D01*
X96817517Y-65419091D01*
X96877127Y-65425500D01*
X97522872Y-65425499D01*
X97582483Y-65419091D01*
X97717331Y-65368796D01*
X97832546Y-65282546D01*
X97912914Y-65175188D01*
X97968847Y-65133318D01*
X98012180Y-65125500D01*
X99047745Y-65125500D01*
X99114784Y-65145185D01*
X99135426Y-65161819D01*
X100361426Y-66387819D01*
X100394911Y-66449142D01*
X100389927Y-66518834D01*
X100348055Y-66574767D01*
X100282591Y-66599184D01*
X100273745Y-66599500D01*
X98655143Y-66599500D01*
X98655117Y-66599502D01*
X98630012Y-66602413D01*
X98630008Y-66602415D01*
X98527235Y-66647793D01*
X98447794Y-66727234D01*
X98402415Y-66830006D01*
X98402415Y-66830008D01*
X98401422Y-66838572D01*
X98399500Y-66855135D01*
X98399500Y-67654991D01*
X98399501Y-68375500D01*
X98379816Y-68442539D01*
X98327013Y-68488294D01*
X98275501Y-68499500D01*
X83606753Y-68499500D01*
X83539714Y-68479815D01*
X83493959Y-68427011D01*
X83484015Y-68357853D01*
X83513040Y-68294297D01*
X83544152Y-68268462D01*
X83550126Y-68264968D01*
X83627571Y-68219675D01*
X83680375Y-68173920D01*
X83680382Y-68173912D01*
X83680387Y-68173908D01*
X83722548Y-68129192D01*
X83722553Y-68129187D01*
X83773439Y-68029111D01*
X83793124Y-67962072D01*
X83793619Y-67958628D01*
X83822635Y-67895074D01*
X83881408Y-67857293D01*
X83951278Y-67857285D01*
X83995021Y-67880412D01*
X84060270Y-67933960D01*
X84113550Y-67977685D01*
X84296046Y-68075232D01*
X84494066Y-68135300D01*
X84494065Y-68135300D01*
X84512529Y-68137118D01*
X84700000Y-68155583D01*
X84905934Y-68135300D01*
X85103954Y-68075232D01*
X85286450Y-67977685D01*
X85446410Y-67846410D01*
X85577685Y-67686450D01*
X85675232Y-67503954D01*
X85735300Y-67305934D01*
X85750500Y-67151608D01*
X85750500Y-66048392D01*
X85735300Y-65894066D01*
X85675232Y-65696046D01*
X85577685Y-65513550D01*
X85500165Y-65419091D01*
X85491198Y-65408164D01*
X85463886Y-65343854D01*
X85475677Y-65274987D01*
X85522830Y-65223427D01*
X85587052Y-65205500D01*
X85826435Y-65205500D01*
X85827989Y-65205441D01*
X85849404Y-65204635D01*
X85867997Y-65203233D01*
X85974074Y-65175504D01*
X86037404Y-65145990D01*
X86089068Y-65112221D01*
X86110183Y-65098420D01*
X86110187Y-65098416D01*
X86110193Y-65098413D01*
X86110476Y-65098164D01*
X86138595Y-65073415D01*
X86155507Y-65060906D01*
X86296264Y-64974239D01*
X86315028Y-64964778D01*
X86468418Y-64903140D01*
X86488507Y-64896988D01*
X86650106Y-64862160D01*
X86670946Y-64859492D01*
X86836086Y-64852477D01*
X86857097Y-64853369D01*
X87021061Y-64874365D01*
X87041613Y-64878795D01*
X87115227Y-64901339D01*
X87199665Y-64927198D01*
X87219179Y-64935040D01*
X87366769Y-65009452D01*
X87384670Y-65020473D01*
X87517572Y-65118766D01*
X87533355Y-65132658D01*
X87598076Y-65200187D01*
X87600994Y-65203232D01*
X87647728Y-65251993D01*
X87660939Y-65268355D01*
X87689247Y-65310238D01*
X87689254Y-65310248D01*
X87689258Y-65310253D01*
X87706725Y-65333610D01*
X87706733Y-65333620D01*
X87721763Y-65351834D01*
X87721798Y-65351874D01*
X87741385Y-65373427D01*
X88858181Y-66490223D01*
X88891666Y-66551546D01*
X88894500Y-66577904D01*
X88894500Y-67076000D01*
X88894501Y-67076009D01*
X88901481Y-67140935D01*
X88901483Y-67140947D01*
X88912688Y-67192453D01*
X88923644Y-67230654D01*
X88923646Y-67230658D01*
X88980323Y-67327568D01*
X88980325Y-67327571D01*
X89026081Y-67380376D01*
X89026091Y-67380387D01*
X89070807Y-67422548D01*
X89070809Y-67422549D01*
X89070813Y-67422553D01*
X89170889Y-67473439D01*
X89237928Y-67493124D01*
X89324000Y-67505500D01*
X89324003Y-67505500D01*
X90575990Y-67505500D01*
X90576000Y-67505500D01*
X90640941Y-67498518D01*
X90692452Y-67487312D01*
X90730658Y-67476354D01*
X90827571Y-67419675D01*
X90880375Y-67373920D01*
X90880382Y-67373912D01*
X90880387Y-67373908D01*
X90922548Y-67329192D01*
X90922553Y-67329187D01*
X90973439Y-67229111D01*
X90993124Y-67162072D01*
X91005500Y-67076000D01*
X91005500Y-65065398D01*
X91005165Y-65051094D01*
X91005136Y-65050474D01*
X91005000Y-65044670D01*
X91005000Y-64655330D01*
X91005136Y-64649523D01*
X91005165Y-64648902D01*
X91005500Y-64634602D01*
X91005500Y-64129500D01*
X91025185Y-64062461D01*
X91077989Y-64016706D01*
X91129500Y-64005500D01*
X94684246Y-64005500D01*
X94751285Y-64025185D01*
G37*
%TD.AperFunction*%
%TA.AperFunction,Conductor*%
G36*
X108418834Y-62190072D02*
G01*
X108474767Y-62231944D01*
X108499184Y-62297408D01*
X108499500Y-62306254D01*
X108499500Y-68375500D01*
X108479815Y-68442539D01*
X108427011Y-68488294D01*
X108375500Y-68499500D01*
X105604315Y-68499500D01*
X105537276Y-68479815D01*
X105491521Y-68427011D01*
X105481577Y-68357853D01*
X105505361Y-68300773D01*
X105507064Y-68298518D01*
X105519673Y-68281821D01*
X105610582Y-68099250D01*
X105666397Y-67903083D01*
X105685215Y-67700000D01*
X105683959Y-67686450D01*
X105666397Y-67496917D01*
X105663664Y-67487311D01*
X105610582Y-67300750D01*
X105608454Y-67296477D01*
X105537276Y-67153531D01*
X105519673Y-67118179D01*
X105411926Y-66975499D01*
X105396762Y-66955418D01*
X105246041Y-66818019D01*
X105246039Y-66818017D01*
X105072642Y-66710655D01*
X105072635Y-66710651D01*
X104931248Y-66655878D01*
X104882456Y-66636976D01*
X104681976Y-66599500D01*
X104478024Y-66599500D01*
X104282455Y-66636058D01*
X104277539Y-66636977D01*
X104159447Y-66682726D01*
X104089824Y-66688588D01*
X104028084Y-66655878D01*
X103993829Y-66594981D01*
X103997936Y-66525232D01*
X104026971Y-66479420D01*
X108287819Y-62218573D01*
X108349142Y-62185088D01*
X108418834Y-62190072D01*
G37*
%TD.AperFunction*%
%TA.AperFunction,Conductor*%
G36*
X92255963Y-50520185D02*
G01*
X92301718Y-50572989D01*
X92311662Y-50642147D01*
X92307901Y-50659435D01*
X92306877Y-50662919D01*
X92302851Y-50690923D01*
X92294500Y-50749000D01*
X92294500Y-53201000D01*
X92294501Y-53201009D01*
X92301481Y-53265935D01*
X92301483Y-53265947D01*
X92312688Y-53317453D01*
X92323644Y-53355654D01*
X92323646Y-53355658D01*
X92380323Y-53452568D01*
X92380325Y-53452571D01*
X92426081Y-53505376D01*
X92426091Y-53505387D01*
X92470807Y-53547548D01*
X92470809Y-53547549D01*
X92470813Y-53547553D01*
X92570889Y-53598439D01*
X92637928Y-53618124D01*
X92724000Y-53630500D01*
X92724003Y-53630500D01*
X98475990Y-53630500D01*
X98476000Y-53630500D01*
X98540941Y-53623518D01*
X98592452Y-53612312D01*
X98630658Y-53601354D01*
X98707902Y-53556177D01*
X98775705Y-53539326D01*
X98841859Y-53561808D01*
X98885357Y-53616486D01*
X98894500Y-53663217D01*
X98894500Y-57376000D01*
X98894501Y-57376009D01*
X98901481Y-57440935D01*
X98901483Y-57440947D01*
X98912688Y-57492453D01*
X98923644Y-57530654D01*
X98923646Y-57530658D01*
X98980323Y-57627568D01*
X98980325Y-57627571D01*
X99026081Y-57680376D01*
X99026091Y-57680387D01*
X99070807Y-57722548D01*
X99070809Y-57722549D01*
X99070813Y-57722553D01*
X99170889Y-57773439D01*
X99237928Y-57793124D01*
X99324000Y-57805500D01*
X99324003Y-57805500D01*
X101038000Y-57805500D01*
X101105039Y-57825185D01*
X101150794Y-57877989D01*
X101162000Y-57929500D01*
X101162000Y-58175500D01*
X101142315Y-58242539D01*
X101089511Y-58288294D01*
X101038000Y-58299500D01*
X94876567Y-58299500D01*
X94855491Y-58306347D01*
X94836582Y-58310887D01*
X94814695Y-58314354D01*
X94794952Y-58324413D01*
X94776988Y-58331854D01*
X94755910Y-58338703D01*
X94755905Y-58338706D01*
X94737977Y-58351731D01*
X94721397Y-58361891D01*
X94701660Y-58371948D01*
X94701659Y-58371948D01*
X94690376Y-58383231D01*
X94679094Y-58394513D01*
X94679093Y-58394513D01*
X94679091Y-58394516D01*
X94078193Y-58995413D01*
X94016870Y-59028898D01*
X93947178Y-59023914D01*
X93945751Y-59023371D01*
X93856198Y-58988679D01*
X93646610Y-58949500D01*
X93433390Y-58949500D01*
X93223802Y-58988679D01*
X93223799Y-58988679D01*
X93223799Y-58988680D01*
X93024982Y-59065701D01*
X93024980Y-59065702D01*
X92843699Y-59177947D01*
X92686127Y-59321593D01*
X92557632Y-59491746D01*
X92462596Y-59682605D01*
X92462596Y-59682607D01*
X92404244Y-59887689D01*
X92393471Y-60003951D01*
X92367685Y-60068888D01*
X92323130Y-60100804D01*
X92359503Y-60121668D01*
X92391693Y-60183681D01*
X92393470Y-60196047D01*
X92404244Y-60312310D01*
X92453050Y-60483844D01*
X92462596Y-60517392D01*
X92462596Y-60517394D01*
X92557632Y-60708253D01*
X92683814Y-60875343D01*
X92686128Y-60878407D01*
X92843698Y-61022052D01*
X93024981Y-61134298D01*
X93223802Y-61211321D01*
X93423288Y-61248611D01*
X93485568Y-61280279D01*
X93520841Y-61340592D01*
X93517907Y-61410400D01*
X93477698Y-61467540D01*
X93412980Y-61493871D01*
X93400502Y-61494500D01*
X91139498Y-61494500D01*
X91121650Y-61489259D01*
X91115088Y-61493477D01*
X91093408Y-61497789D01*
X91059064Y-61501481D01*
X91059052Y-61501483D01*
X91007546Y-61512688D01*
X90969345Y-61523644D01*
X90969341Y-61523646D01*
X90872431Y-61580323D01*
X90872428Y-61580325D01*
X90819623Y-61626081D01*
X90819612Y-61626091D01*
X90777451Y-61670807D01*
X90777445Y-61670816D01*
X90726560Y-61770890D01*
X90706877Y-61837921D01*
X90706876Y-61837928D01*
X90694663Y-61922870D01*
X90694500Y-61924002D01*
X90694500Y-63070500D01*
X90674815Y-63137539D01*
X90622011Y-63183294D01*
X90570500Y-63194500D01*
X85229500Y-63194500D01*
X85162461Y-63174815D01*
X85116706Y-63122011D01*
X85105500Y-63070500D01*
X85105500Y-60100000D01*
X89844571Y-60100000D01*
X89864244Y-60312310D01*
X89913050Y-60483844D01*
X89922596Y-60517392D01*
X89922596Y-60517394D01*
X90017632Y-60708253D01*
X90143814Y-60875343D01*
X90146128Y-60878407D01*
X90303698Y-61022052D01*
X90484981Y-61134298D01*
X90683802Y-61211321D01*
X90893390Y-61250500D01*
X90893392Y-61250500D01*
X91080153Y-61250500D01*
X91098000Y-61255740D01*
X91104563Y-61251523D01*
X91116705Y-61248612D01*
X91316198Y-61211321D01*
X91515019Y-61134298D01*
X91696302Y-61022052D01*
X91853872Y-60878407D01*
X91982366Y-60708255D01*
X92031402Y-60609777D01*
X92077403Y-60517394D01*
X92077403Y-60517393D01*
X92077405Y-60517389D01*
X92135756Y-60312310D01*
X92146529Y-60196047D01*
X92172315Y-60131111D01*
X92216869Y-60099194D01*
X92180497Y-60078331D01*
X92148307Y-60016318D01*
X92146529Y-60003951D01*
X92145849Y-59996613D01*
X92135756Y-59887690D01*
X92077405Y-59682611D01*
X92077403Y-59682606D01*
X92077403Y-59682605D01*
X91982367Y-59491746D01*
X91853872Y-59321593D01*
X91836442Y-59305703D01*
X91696302Y-59177948D01*
X91515019Y-59065702D01*
X91515017Y-59065701D01*
X91359577Y-59005484D01*
X91316198Y-58988679D01*
X91106610Y-58949500D01*
X90893390Y-58949500D01*
X90683802Y-58988679D01*
X90683799Y-58988679D01*
X90683799Y-58988680D01*
X90484982Y-59065701D01*
X90484980Y-59065702D01*
X90303699Y-59177947D01*
X90146127Y-59321593D01*
X90017632Y-59491746D01*
X89922596Y-59682605D01*
X89922596Y-59682607D01*
X89866014Y-59881470D01*
X89864244Y-59887690D01*
X89844571Y-60100000D01*
X85105500Y-60100000D01*
X85105500Y-55644856D01*
X86699500Y-55644856D01*
X86699502Y-55644882D01*
X86702413Y-55669987D01*
X86702415Y-55669991D01*
X86747793Y-55772764D01*
X86747794Y-55772765D01*
X86827235Y-55852206D01*
X86930009Y-55897585D01*
X86955135Y-55900500D01*
X88644864Y-55900499D01*
X88644879Y-55900497D01*
X88644882Y-55900497D01*
X88669987Y-55897586D01*
X88669988Y-55897585D01*
X88669991Y-55897585D01*
X88772765Y-55852206D01*
X88824966Y-55800005D01*
X90694357Y-55800005D01*
X90714890Y-56047812D01*
X90714892Y-56047824D01*
X90775936Y-56288881D01*
X90875826Y-56516606D01*
X91011833Y-56724782D01*
X91011836Y-56724785D01*
X91180256Y-56907738D01*
X91376491Y-57060474D01*
X91376493Y-57060475D01*
X91574174Y-57167455D01*
X91595190Y-57178828D01*
X91830386Y-57259571D01*
X92075665Y-57300500D01*
X92324335Y-57300500D01*
X92569614Y-57259571D01*
X92804810Y-57178828D01*
X93023509Y-57060474D01*
X93219744Y-56907738D01*
X93388164Y-56724785D01*
X93524173Y-56516607D01*
X93624063Y-56288881D01*
X93685108Y-56047821D01*
X93685109Y-56047812D01*
X93705643Y-55800005D01*
X93705643Y-55799994D01*
X93685109Y-55552187D01*
X93685107Y-55552175D01*
X93624063Y-55311118D01*
X93524173Y-55083393D01*
X93388166Y-54875217D01*
X93366557Y-54851744D01*
X93219744Y-54692262D01*
X93023509Y-54539526D01*
X93023507Y-54539525D01*
X93023506Y-54539524D01*
X92804811Y-54421172D01*
X92804802Y-54421169D01*
X92569616Y-54340429D01*
X92324335Y-54299500D01*
X92075665Y-54299500D01*
X91830383Y-54340429D01*
X91595197Y-54421169D01*
X91595188Y-54421172D01*
X91376493Y-54539524D01*
X91180257Y-54692261D01*
X91011833Y-54875217D01*
X90875826Y-55083393D01*
X90775936Y-55311118D01*
X90714892Y-55552175D01*
X90714890Y-55552187D01*
X90694357Y-55799994D01*
X90694357Y-55800005D01*
X88824966Y-55800005D01*
X88852206Y-55772765D01*
X88897585Y-55669991D01*
X88900500Y-55644865D01*
X88900499Y-53355136D01*
X88900380Y-53354111D01*
X88897586Y-53330012D01*
X88897585Y-53330010D01*
X88897585Y-53330009D01*
X88852206Y-53227235D01*
X88772765Y-53147794D01*
X88761754Y-53142932D01*
X88669992Y-53102415D01*
X88644865Y-53099500D01*
X86955143Y-53099500D01*
X86955117Y-53099502D01*
X86930012Y-53102413D01*
X86930008Y-53102415D01*
X86827235Y-53147793D01*
X86747794Y-53227234D01*
X86702415Y-53330006D01*
X86702415Y-53330008D01*
X86699500Y-53355131D01*
X86699500Y-55644856D01*
X85105500Y-55644856D01*
X85105500Y-50824010D01*
X85105500Y-50824000D01*
X85098518Y-50759059D01*
X85087312Y-50707548D01*
X85076354Y-50669342D01*
X85074216Y-50661887D01*
X85076597Y-50661204D01*
X85069765Y-50603894D01*
X85100316Y-50541058D01*
X85159989Y-50504714D01*
X85192041Y-50500500D01*
X92188924Y-50500500D01*
X92255963Y-50520185D01*
G37*
%TD.AperFunction*%
%TA.AperFunction,Conductor*%
G36*
X106042206Y-50520185D02*
G01*
X106087961Y-50572989D01*
X106097905Y-50642147D01*
X106068880Y-50705703D01*
X106062848Y-50712181D01*
X105997794Y-50777234D01*
X105952415Y-50880006D01*
X105952415Y-50880008D01*
X105949500Y-50905131D01*
X105949500Y-52694856D01*
X105949502Y-52694882D01*
X105952413Y-52719987D01*
X105952415Y-52719991D01*
X105997793Y-52822764D01*
X105997794Y-52822765D01*
X106077235Y-52902206D01*
X106180009Y-52947585D01*
X106205135Y-52950500D01*
X107632743Y-52950499D01*
X107699782Y-52970184D01*
X107720424Y-52986817D01*
X107783181Y-53049573D01*
X107816666Y-53110896D01*
X107819500Y-53137255D01*
X107819500Y-58996113D01*
X107799815Y-59063152D01*
X107747011Y-59108907D01*
X107677853Y-59118851D01*
X107630225Y-59101541D01*
X107612643Y-59090655D01*
X107612631Y-59090649D01*
X107599704Y-59085641D01*
X107544303Y-59043067D01*
X107520714Y-58977299D01*
X107520500Y-58970015D01*
X107520500Y-58759080D01*
X107520499Y-58759065D01*
X107520499Y-58731568D01*
X107520499Y-58731567D01*
X107513653Y-58710501D01*
X107509111Y-58691580D01*
X107505646Y-58669696D01*
X107495586Y-58649952D01*
X107488140Y-58631974D01*
X107481297Y-58610913D01*
X107481296Y-58610912D01*
X107481296Y-58610910D01*
X107468269Y-58592981D01*
X107458104Y-58576392D01*
X107448050Y-58556658D01*
X107156651Y-58265259D01*
X107123166Y-58203936D01*
X107121043Y-58164325D01*
X107125500Y-58122873D01*
X107125499Y-57477128D01*
X107119091Y-57417517D01*
X107117911Y-57414354D01*
X107068797Y-57282671D01*
X107068793Y-57282664D01*
X106982547Y-57167455D01*
X106982544Y-57167452D01*
X106867335Y-57081206D01*
X106867328Y-57081202D01*
X106732486Y-57030910D01*
X106732485Y-57030909D01*
X106732483Y-57030909D01*
X106672873Y-57024500D01*
X106672863Y-57024500D01*
X106177129Y-57024500D01*
X106177123Y-57024501D01*
X106117516Y-57030908D01*
X105982671Y-57081202D01*
X105982664Y-57081206D01*
X105867455Y-57167452D01*
X105867452Y-57167455D01*
X105781206Y-57282664D01*
X105781202Y-57282671D01*
X105730910Y-57417513D01*
X105730909Y-57417517D01*
X105724500Y-57477127D01*
X105724500Y-57477134D01*
X105724500Y-57477135D01*
X105724500Y-58122870D01*
X105724501Y-58122872D01*
X105728733Y-58162246D01*
X105716328Y-58231005D01*
X105668717Y-58282142D01*
X105605444Y-58299500D01*
X105594556Y-58299500D01*
X105527517Y-58279815D01*
X105481762Y-58227011D01*
X105471267Y-58162245D01*
X105471643Y-58158738D01*
X105475500Y-58122873D01*
X105475499Y-57477128D01*
X105469091Y-57417517D01*
X105467911Y-57414354D01*
X105418797Y-57282671D01*
X105418793Y-57282664D01*
X105332547Y-57167455D01*
X105332544Y-57167452D01*
X105217335Y-57081206D01*
X105217328Y-57081202D01*
X105082486Y-57030910D01*
X105082485Y-57030909D01*
X105082483Y-57030909D01*
X105022873Y-57024500D01*
X105022863Y-57024500D01*
X104527129Y-57024500D01*
X104527123Y-57024501D01*
X104467516Y-57030908D01*
X104332671Y-57081202D01*
X104332664Y-57081206D01*
X104217455Y-57167452D01*
X104217452Y-57167455D01*
X104131206Y-57282664D01*
X104131203Y-57282669D01*
X104117715Y-57318834D01*
X104075843Y-57374767D01*
X104010379Y-57399184D01*
X104001533Y-57399500D01*
X103536567Y-57399500D01*
X103515491Y-57406347D01*
X103496582Y-57410887D01*
X103474695Y-57414354D01*
X103454952Y-57424413D01*
X103436988Y-57431854D01*
X103415910Y-57438703D01*
X103415905Y-57438706D01*
X103397977Y-57451731D01*
X103381397Y-57461891D01*
X103361660Y-57471948D01*
X103361659Y-57471948D01*
X103350376Y-57483231D01*
X103339094Y-57494513D01*
X103339093Y-57494513D01*
X103339091Y-57494516D01*
X103339090Y-57494517D01*
X103240400Y-57593205D01*
X103179077Y-57626689D01*
X103109385Y-57621704D01*
X103079087Y-57605293D01*
X103000386Y-57547209D01*
X103000380Y-57547206D01*
X102872200Y-57502353D01*
X102841770Y-57499500D01*
X102841766Y-57499500D01*
X101629500Y-57499500D01*
X101562461Y-57479815D01*
X101516706Y-57427011D01*
X101505500Y-57375500D01*
X101505500Y-56556217D01*
X101505500Y-56556207D01*
X101501182Y-56505027D01*
X101494223Y-56464075D01*
X101481397Y-56414355D01*
X101474456Y-56394520D01*
X101467500Y-56353570D01*
X101467500Y-56046430D01*
X101474459Y-56005474D01*
X101474642Y-56004950D01*
X101481398Y-55985644D01*
X101494226Y-55935914D01*
X101501184Y-55894960D01*
X101505500Y-55843789D01*
X101505500Y-50724000D01*
X101498518Y-50659059D01*
X101496734Y-50650858D01*
X101501717Y-50581169D01*
X101543587Y-50525235D01*
X101609051Y-50500816D01*
X101617900Y-50500500D01*
X105975167Y-50500500D01*
X106042206Y-50520185D01*
G37*
%TD.AperFunction*%
%TA.AperFunction,Conductor*%
G36*
X71609591Y-53528569D02*
G01*
X71630009Y-53537585D01*
X71655135Y-53540500D01*
X72044777Y-53540499D01*
X72111816Y-53560183D01*
X72157571Y-53612987D01*
X72167515Y-53682146D01*
X72138490Y-53745701D01*
X72094864Y-53777933D01*
X72027234Y-53807794D01*
X71947794Y-53887234D01*
X71902415Y-53990006D01*
X71902415Y-53990008D01*
X71899500Y-54015131D01*
X71899500Y-54954856D01*
X71899502Y-54954882D01*
X71902413Y-54979987D01*
X71902415Y-54979991D01*
X71947793Y-55082764D01*
X71947794Y-55082765D01*
X72027235Y-55162206D01*
X72130009Y-55207585D01*
X72155135Y-55210500D01*
X72544864Y-55210499D01*
X72544879Y-55210497D01*
X72544882Y-55210497D01*
X72579258Y-55206511D01*
X72579463Y-55208281D01*
X72620540Y-55208281D01*
X72620745Y-55206510D01*
X72630007Y-55207584D01*
X72630009Y-55207585D01*
X72655135Y-55210500D01*
X72775500Y-55210499D01*
X72842539Y-55230183D01*
X72888294Y-55282987D01*
X72899500Y-55334499D01*
X72899500Y-57733209D01*
X72879815Y-57800248D01*
X72849134Y-57832979D01*
X72756409Y-57901412D01*
X72702740Y-57974133D01*
X72647093Y-58016384D01*
X72602970Y-58024500D01*
X72262181Y-58024500D01*
X72195142Y-58004815D01*
X72163378Y-57975426D01*
X72125079Y-57924922D01*
X72009976Y-57837636D01*
X71875588Y-57784640D01*
X71832242Y-57779435D01*
X71791144Y-57774500D01*
X71208856Y-57774500D01*
X71170841Y-57779065D01*
X71124411Y-57784640D01*
X70990023Y-57837636D01*
X70874921Y-57924921D01*
X70787634Y-58040026D01*
X70787634Y-58040027D01*
X70739854Y-58161189D01*
X70696948Y-58216333D01*
X70631041Y-58239526D01*
X70563056Y-58223405D01*
X70514580Y-58173088D01*
X70500500Y-58115699D01*
X70500500Y-54319139D01*
X70520185Y-54252100D01*
X70572989Y-54206345D01*
X70642147Y-54196401D01*
X70671951Y-54204578D01*
X70698459Y-54215558D01*
X70811953Y-54230500D01*
X70811960Y-54230500D01*
X70888040Y-54230500D01*
X70888047Y-54230500D01*
X71001541Y-54215558D01*
X71118976Y-54166915D01*
X71142752Y-54157067D01*
X71142755Y-54157065D01*
X71151423Y-54150414D01*
X71264017Y-54064017D01*
X71357066Y-53942755D01*
X71415558Y-53801541D01*
X71435509Y-53650000D01*
X71435509Y-53649999D01*
X71435509Y-53642005D01*
X71455194Y-53574966D01*
X71507998Y-53529211D01*
X71577156Y-53519267D01*
X71609591Y-53528569D01*
G37*
%TD.AperFunction*%
%TA.AperFunction,Conductor*%
G36*
X73300785Y-50520185D02*
G01*
X73346540Y-50572989D01*
X73356484Y-50642147D01*
X73327459Y-50705703D01*
X73321433Y-50712173D01*
X73153601Y-50880006D01*
X73094516Y-50939091D01*
X73094513Y-50939093D01*
X73094513Y-50939094D01*
X73083231Y-50950376D01*
X73071948Y-50961659D01*
X73071948Y-50961660D01*
X73061891Y-50981397D01*
X73051731Y-50997977D01*
X73038706Y-51015905D01*
X73038703Y-51015910D01*
X73031854Y-51036988D01*
X73024413Y-51054952D01*
X73014354Y-51074695D01*
X73010887Y-51096582D01*
X73006347Y-51115491D01*
X72999500Y-51136567D01*
X72999500Y-51863429D01*
X72999501Y-51863439D01*
X73006346Y-51884507D01*
X73010887Y-51903418D01*
X73014355Y-51925309D01*
X73014964Y-51927183D01*
X73015032Y-51929585D01*
X73015881Y-51934940D01*
X73015188Y-51935049D01*
X73016959Y-51997024D01*
X72980878Y-52056857D01*
X72918176Y-52087684D01*
X72897034Y-52089500D01*
X72655143Y-52089500D01*
X72655117Y-52089502D01*
X72620742Y-52093489D01*
X72620537Y-52091727D01*
X72579459Y-52091725D01*
X72579255Y-52093490D01*
X72569991Y-52092415D01*
X72544865Y-52089500D01*
X72155143Y-52089500D01*
X72155117Y-52089502D01*
X72120742Y-52093489D01*
X72120537Y-52091727D01*
X72079459Y-52091725D01*
X72079255Y-52093490D01*
X72069991Y-52092415D01*
X72044865Y-52089500D01*
X71655143Y-52089500D01*
X71655117Y-52089502D01*
X71630012Y-52092413D01*
X71630008Y-52092415D01*
X71527235Y-52137793D01*
X71447794Y-52217234D01*
X71402415Y-52320006D01*
X71402415Y-52320008D01*
X71399500Y-52345131D01*
X71399500Y-53088496D01*
X71379815Y-53155535D01*
X71327011Y-53201290D01*
X71257853Y-53211234D01*
X71200013Y-53186871D01*
X71196068Y-53183844D01*
X71142754Y-53142934D01*
X71142752Y-53142932D01*
X71001544Y-53084443D01*
X71001542Y-53084442D01*
X71001541Y-53084442D01*
X70987354Y-53082574D01*
X70888054Y-53069500D01*
X70888047Y-53069500D01*
X70811953Y-53069500D01*
X70811945Y-53069500D01*
X70698459Y-53084442D01*
X70684824Y-53090090D01*
X70671951Y-53095422D01*
X70602482Y-53102890D01*
X70540003Y-53071614D01*
X70504351Y-53011525D01*
X70500500Y-52980860D01*
X70500500Y-50624500D01*
X70520185Y-50557461D01*
X70572989Y-50511706D01*
X70624500Y-50500500D01*
X73233746Y-50500500D01*
X73300785Y-50520185D01*
G37*
%TD.AperFunction*%
%TD*%
M02*
