%TF.GenerationSoftware,KiCad,Pcbnew,7.0.11-2.fc38*%
%TF.CreationDate,2024-04-24T16:28:19+02:00*%
%TF.ProjectId,lr_40,6c725f34-302e-46b6-9963-61645f706362,rev?*%
%TF.SameCoordinates,Original*%
%TF.FileFunction,Legend,Top*%
%TF.FilePolarity,Positive*%
%FSLAX46Y46*%
G04 Gerber Fmt 4.6, Leading zero omitted, Abs format (unit mm)*
G04 Created by KiCad (PCBNEW 7.0.11-2.fc38) date 2024-04-24 16:28:19*
%MOMM*%
%LPD*%
G01*
G04 APERTURE LIST*
%ADD10C,0.100000*%
%ADD11C,0.150000*%
%ADD12C,0.120000*%
G04 APERTURE END LIST*
D10*
X82303884Y-51591466D02*
X83065789Y-51591466D01*
X82684836Y-51972419D02*
X82684836Y-51210514D01*
X108003884Y-50691466D02*
X108765789Y-50691466D01*
X108384836Y-51072419D02*
X108384836Y-50310514D01*
X83503884Y-59791466D02*
X84265789Y-59791466D01*
X83884836Y-60172419D02*
X83884836Y-59410514D01*
X97203884Y-53791466D02*
X97965789Y-53791466D01*
X97584836Y-54172419D02*
X97584836Y-53410514D01*
D11*
X86839285Y-51581009D02*
X86982142Y-51628628D01*
X86982142Y-51628628D02*
X87029761Y-51676247D01*
X87029761Y-51676247D02*
X87077380Y-51771485D01*
X87077380Y-51771485D02*
X87077380Y-51914342D01*
X87077380Y-51914342D02*
X87029761Y-52009580D01*
X87029761Y-52009580D02*
X86982142Y-52057200D01*
X86982142Y-52057200D02*
X86886904Y-52104819D01*
X86886904Y-52104819D02*
X86505952Y-52104819D01*
X86505952Y-52104819D02*
X86505952Y-51104819D01*
X86505952Y-51104819D02*
X86839285Y-51104819D01*
X86839285Y-51104819D02*
X86934523Y-51152438D01*
X86934523Y-51152438D02*
X86982142Y-51200057D01*
X86982142Y-51200057D02*
X87029761Y-51295295D01*
X87029761Y-51295295D02*
X87029761Y-51390533D01*
X87029761Y-51390533D02*
X86982142Y-51485771D01*
X86982142Y-51485771D02*
X86934523Y-51533390D01*
X86934523Y-51533390D02*
X86839285Y-51581009D01*
X86839285Y-51581009D02*
X86505952Y-51581009D01*
X87363095Y-51104819D02*
X87934523Y-51104819D01*
X87648809Y-52104819D02*
X87648809Y-51104819D01*
X88220238Y-51200057D02*
X88267857Y-51152438D01*
X88267857Y-51152438D02*
X88363095Y-51104819D01*
X88363095Y-51104819D02*
X88601190Y-51104819D01*
X88601190Y-51104819D02*
X88696428Y-51152438D01*
X88696428Y-51152438D02*
X88744047Y-51200057D01*
X88744047Y-51200057D02*
X88791666Y-51295295D01*
X88791666Y-51295295D02*
X88791666Y-51390533D01*
X88791666Y-51390533D02*
X88744047Y-51533390D01*
X88744047Y-51533390D02*
X88172619Y-52104819D01*
X88172619Y-52104819D02*
X88791666Y-52104819D01*
D10*
X94909524Y-62564895D02*
X94909524Y-61764895D01*
X94909524Y-61764895D02*
X95100000Y-61764895D01*
X95100000Y-61764895D02*
X95214286Y-61802990D01*
X95214286Y-61802990D02*
X95290476Y-61879180D01*
X95290476Y-61879180D02*
X95328571Y-61955371D01*
X95328571Y-61955371D02*
X95366667Y-62107752D01*
X95366667Y-62107752D02*
X95366667Y-62222038D01*
X95366667Y-62222038D02*
X95328571Y-62374419D01*
X95328571Y-62374419D02*
X95290476Y-62450609D01*
X95290476Y-62450609D02*
X95214286Y-62526800D01*
X95214286Y-62526800D02*
X95100000Y-62564895D01*
X95100000Y-62564895D02*
X94909524Y-62564895D01*
X95671428Y-61841085D02*
X95709524Y-61802990D01*
X95709524Y-61802990D02*
X95785714Y-61764895D01*
X95785714Y-61764895D02*
X95976190Y-61764895D01*
X95976190Y-61764895D02*
X96052381Y-61802990D01*
X96052381Y-61802990D02*
X96090476Y-61841085D01*
X96090476Y-61841085D02*
X96128571Y-61917276D01*
X96128571Y-61917276D02*
X96128571Y-61993466D01*
X96128571Y-61993466D02*
X96090476Y-62107752D01*
X96090476Y-62107752D02*
X95633333Y-62564895D01*
X95633333Y-62564895D02*
X96128571Y-62564895D01*
D11*
X89666667Y-58507200D02*
X89809524Y-58554819D01*
X89809524Y-58554819D02*
X90047619Y-58554819D01*
X90047619Y-58554819D02*
X90142857Y-58507200D01*
X90142857Y-58507200D02*
X90190476Y-58459580D01*
X90190476Y-58459580D02*
X90238095Y-58364342D01*
X90238095Y-58364342D02*
X90238095Y-58269104D01*
X90238095Y-58269104D02*
X90190476Y-58173866D01*
X90190476Y-58173866D02*
X90142857Y-58126247D01*
X90142857Y-58126247D02*
X90047619Y-58078628D01*
X90047619Y-58078628D02*
X89857143Y-58031009D01*
X89857143Y-58031009D02*
X89761905Y-57983390D01*
X89761905Y-57983390D02*
X89714286Y-57935771D01*
X89714286Y-57935771D02*
X89666667Y-57840533D01*
X89666667Y-57840533D02*
X89666667Y-57745295D01*
X89666667Y-57745295D02*
X89714286Y-57650057D01*
X89714286Y-57650057D02*
X89761905Y-57602438D01*
X89761905Y-57602438D02*
X89857143Y-57554819D01*
X89857143Y-57554819D02*
X90095238Y-57554819D01*
X90095238Y-57554819D02*
X90238095Y-57602438D01*
X90571429Y-57554819D02*
X90809524Y-58554819D01*
X90809524Y-58554819D02*
X91000000Y-57840533D01*
X91000000Y-57840533D02*
X91190476Y-58554819D01*
X91190476Y-58554819D02*
X91428572Y-57554819D01*
X91714286Y-57554819D02*
X92333333Y-57554819D01*
X92333333Y-57554819D02*
X92000000Y-57935771D01*
X92000000Y-57935771D02*
X92142857Y-57935771D01*
X92142857Y-57935771D02*
X92238095Y-57983390D01*
X92238095Y-57983390D02*
X92285714Y-58031009D01*
X92285714Y-58031009D02*
X92333333Y-58126247D01*
X92333333Y-58126247D02*
X92333333Y-58364342D01*
X92333333Y-58364342D02*
X92285714Y-58459580D01*
X92285714Y-58459580D02*
X92238095Y-58507200D01*
X92238095Y-58507200D02*
X92142857Y-58554819D01*
X92142857Y-58554819D02*
X91857143Y-58554819D01*
X91857143Y-58554819D02*
X91761905Y-58507200D01*
X91761905Y-58507200D02*
X91714286Y-58459580D01*
X94533333Y-51459580D02*
X94485714Y-51507200D01*
X94485714Y-51507200D02*
X94342857Y-51554819D01*
X94342857Y-51554819D02*
X94247619Y-51554819D01*
X94247619Y-51554819D02*
X94104762Y-51507200D01*
X94104762Y-51507200D02*
X94009524Y-51411961D01*
X94009524Y-51411961D02*
X93961905Y-51316723D01*
X93961905Y-51316723D02*
X93914286Y-51126247D01*
X93914286Y-51126247D02*
X93914286Y-50983390D01*
X93914286Y-50983390D02*
X93961905Y-50792914D01*
X93961905Y-50792914D02*
X94009524Y-50697676D01*
X94009524Y-50697676D02*
X94104762Y-50602438D01*
X94104762Y-50602438D02*
X94247619Y-50554819D01*
X94247619Y-50554819D02*
X94342857Y-50554819D01*
X94342857Y-50554819D02*
X94485714Y-50602438D01*
X94485714Y-50602438D02*
X94533333Y-50650057D01*
X94866667Y-50554819D02*
X95485714Y-50554819D01*
X95485714Y-50554819D02*
X95152381Y-50935771D01*
X95152381Y-50935771D02*
X95295238Y-50935771D01*
X95295238Y-50935771D02*
X95390476Y-50983390D01*
X95390476Y-50983390D02*
X95438095Y-51031009D01*
X95438095Y-51031009D02*
X95485714Y-51126247D01*
X95485714Y-51126247D02*
X95485714Y-51364342D01*
X95485714Y-51364342D02*
X95438095Y-51459580D01*
X95438095Y-51459580D02*
X95390476Y-51507200D01*
X95390476Y-51507200D02*
X95295238Y-51554819D01*
X95295238Y-51554819D02*
X95009524Y-51554819D01*
X95009524Y-51554819D02*
X94914286Y-51507200D01*
X94914286Y-51507200D02*
X94866667Y-51459580D01*
X70954819Y-62561904D02*
X71764342Y-62561904D01*
X71764342Y-62561904D02*
X71859580Y-62514285D01*
X71859580Y-62514285D02*
X71907200Y-62466666D01*
X71907200Y-62466666D02*
X71954819Y-62371428D01*
X71954819Y-62371428D02*
X71954819Y-62180952D01*
X71954819Y-62180952D02*
X71907200Y-62085714D01*
X71907200Y-62085714D02*
X71859580Y-62038095D01*
X71859580Y-62038095D02*
X71764342Y-61990476D01*
X71764342Y-61990476D02*
X70954819Y-61990476D01*
X70954819Y-61609523D02*
X70954819Y-60990476D01*
X70954819Y-60990476D02*
X71335771Y-61323809D01*
X71335771Y-61323809D02*
X71335771Y-61180952D01*
X71335771Y-61180952D02*
X71383390Y-61085714D01*
X71383390Y-61085714D02*
X71431009Y-61038095D01*
X71431009Y-61038095D02*
X71526247Y-60990476D01*
X71526247Y-60990476D02*
X71764342Y-60990476D01*
X71764342Y-60990476D02*
X71859580Y-61038095D01*
X71859580Y-61038095D02*
X71907200Y-61085714D01*
X71907200Y-61085714D02*
X71954819Y-61180952D01*
X71954819Y-61180952D02*
X71954819Y-61466666D01*
X71954819Y-61466666D02*
X71907200Y-61561904D01*
X71907200Y-61561904D02*
X71859580Y-61609523D01*
X76159580Y-67166666D02*
X76207200Y-67214285D01*
X76207200Y-67214285D02*
X76254819Y-67357142D01*
X76254819Y-67357142D02*
X76254819Y-67452380D01*
X76254819Y-67452380D02*
X76207200Y-67595237D01*
X76207200Y-67595237D02*
X76111961Y-67690475D01*
X76111961Y-67690475D02*
X76016723Y-67738094D01*
X76016723Y-67738094D02*
X75826247Y-67785713D01*
X75826247Y-67785713D02*
X75683390Y-67785713D01*
X75683390Y-67785713D02*
X75492914Y-67738094D01*
X75492914Y-67738094D02*
X75397676Y-67690475D01*
X75397676Y-67690475D02*
X75302438Y-67595237D01*
X75302438Y-67595237D02*
X75254819Y-67452380D01*
X75254819Y-67452380D02*
X75254819Y-67357142D01*
X75254819Y-67357142D02*
X75302438Y-67214285D01*
X75302438Y-67214285D02*
X75350057Y-67166666D01*
X75254819Y-66833332D02*
X75254819Y-66166666D01*
X75254819Y-66166666D02*
X76254819Y-66595237D01*
X94059580Y-66366666D02*
X94107200Y-66414285D01*
X94107200Y-66414285D02*
X94154819Y-66557142D01*
X94154819Y-66557142D02*
X94154819Y-66652380D01*
X94154819Y-66652380D02*
X94107200Y-66795237D01*
X94107200Y-66795237D02*
X94011961Y-66890475D01*
X94011961Y-66890475D02*
X93916723Y-66938094D01*
X93916723Y-66938094D02*
X93726247Y-66985713D01*
X93726247Y-66985713D02*
X93583390Y-66985713D01*
X93583390Y-66985713D02*
X93392914Y-66938094D01*
X93392914Y-66938094D02*
X93297676Y-66890475D01*
X93297676Y-66890475D02*
X93202438Y-66795237D01*
X93202438Y-66795237D02*
X93154819Y-66652380D01*
X93154819Y-66652380D02*
X93154819Y-66557142D01*
X93154819Y-66557142D02*
X93202438Y-66414285D01*
X93202438Y-66414285D02*
X93250057Y-66366666D01*
X93250057Y-65985713D02*
X93202438Y-65938094D01*
X93202438Y-65938094D02*
X93154819Y-65842856D01*
X93154819Y-65842856D02*
X93154819Y-65604761D01*
X93154819Y-65604761D02*
X93202438Y-65509523D01*
X93202438Y-65509523D02*
X93250057Y-65461904D01*
X93250057Y-65461904D02*
X93345295Y-65414285D01*
X93345295Y-65414285D02*
X93440533Y-65414285D01*
X93440533Y-65414285D02*
X93583390Y-65461904D01*
X93583390Y-65461904D02*
X94154819Y-66033332D01*
X94154819Y-66033332D02*
X94154819Y-65414285D01*
X94533333Y-53059580D02*
X94485714Y-53107200D01*
X94485714Y-53107200D02*
X94342857Y-53154819D01*
X94342857Y-53154819D02*
X94247619Y-53154819D01*
X94247619Y-53154819D02*
X94104762Y-53107200D01*
X94104762Y-53107200D02*
X94009524Y-53011961D01*
X94009524Y-53011961D02*
X93961905Y-52916723D01*
X93961905Y-52916723D02*
X93914286Y-52726247D01*
X93914286Y-52726247D02*
X93914286Y-52583390D01*
X93914286Y-52583390D02*
X93961905Y-52392914D01*
X93961905Y-52392914D02*
X94009524Y-52297676D01*
X94009524Y-52297676D02*
X94104762Y-52202438D01*
X94104762Y-52202438D02*
X94247619Y-52154819D01*
X94247619Y-52154819D02*
X94342857Y-52154819D01*
X94342857Y-52154819D02*
X94485714Y-52202438D01*
X94485714Y-52202438D02*
X94533333Y-52250057D01*
X95390476Y-52488152D02*
X95390476Y-53154819D01*
X95152381Y-52107200D02*
X94914286Y-52821485D01*
X94914286Y-52821485D02*
X95533333Y-52821485D01*
X82284819Y-63038094D02*
X81284819Y-63038094D01*
X81284819Y-63038094D02*
X81284819Y-62799999D01*
X81284819Y-62799999D02*
X81332438Y-62657142D01*
X81332438Y-62657142D02*
X81427676Y-62561904D01*
X81427676Y-62561904D02*
X81522914Y-62514285D01*
X81522914Y-62514285D02*
X81713390Y-62466666D01*
X81713390Y-62466666D02*
X81856247Y-62466666D01*
X81856247Y-62466666D02*
X82046723Y-62514285D01*
X82046723Y-62514285D02*
X82141961Y-62561904D01*
X82141961Y-62561904D02*
X82237200Y-62657142D01*
X82237200Y-62657142D02*
X82284819Y-62799999D01*
X82284819Y-62799999D02*
X82284819Y-63038094D01*
X81284819Y-62133332D02*
X81284819Y-61514285D01*
X81284819Y-61514285D02*
X81665771Y-61847618D01*
X81665771Y-61847618D02*
X81665771Y-61704761D01*
X81665771Y-61704761D02*
X81713390Y-61609523D01*
X81713390Y-61609523D02*
X81761009Y-61561904D01*
X81761009Y-61561904D02*
X81856247Y-61514285D01*
X81856247Y-61514285D02*
X82094342Y-61514285D01*
X82094342Y-61514285D02*
X82189580Y-61561904D01*
X82189580Y-61561904D02*
X82237200Y-61609523D01*
X82237200Y-61609523D02*
X82284819Y-61704761D01*
X82284819Y-61704761D02*
X82284819Y-61990475D01*
X82284819Y-61990475D02*
X82237200Y-62085713D01*
X82237200Y-62085713D02*
X82189580Y-62133332D01*
X73233333Y-65454819D02*
X72900000Y-64978628D01*
X72661905Y-65454819D02*
X72661905Y-64454819D01*
X72661905Y-64454819D02*
X73042857Y-64454819D01*
X73042857Y-64454819D02*
X73138095Y-64502438D01*
X73138095Y-64502438D02*
X73185714Y-64550057D01*
X73185714Y-64550057D02*
X73233333Y-64645295D01*
X73233333Y-64645295D02*
X73233333Y-64788152D01*
X73233333Y-64788152D02*
X73185714Y-64883390D01*
X73185714Y-64883390D02*
X73138095Y-64931009D01*
X73138095Y-64931009D02*
X73042857Y-64978628D01*
X73042857Y-64978628D02*
X72661905Y-64978628D01*
X74090476Y-64454819D02*
X73900000Y-64454819D01*
X73900000Y-64454819D02*
X73804762Y-64502438D01*
X73804762Y-64502438D02*
X73757143Y-64550057D01*
X73757143Y-64550057D02*
X73661905Y-64692914D01*
X73661905Y-64692914D02*
X73614286Y-64883390D01*
X73614286Y-64883390D02*
X73614286Y-65264342D01*
X73614286Y-65264342D02*
X73661905Y-65359580D01*
X73661905Y-65359580D02*
X73709524Y-65407200D01*
X73709524Y-65407200D02*
X73804762Y-65454819D01*
X73804762Y-65454819D02*
X73995238Y-65454819D01*
X73995238Y-65454819D02*
X74090476Y-65407200D01*
X74090476Y-65407200D02*
X74138095Y-65359580D01*
X74138095Y-65359580D02*
X74185714Y-65264342D01*
X74185714Y-65264342D02*
X74185714Y-65026247D01*
X74185714Y-65026247D02*
X74138095Y-64931009D01*
X74138095Y-64931009D02*
X74090476Y-64883390D01*
X74090476Y-64883390D02*
X73995238Y-64835771D01*
X73995238Y-64835771D02*
X73804762Y-64835771D01*
X73804762Y-64835771D02*
X73709524Y-64883390D01*
X73709524Y-64883390D02*
X73661905Y-64931009D01*
X73661905Y-64931009D02*
X73614286Y-65026247D01*
X104816667Y-54307200D02*
X104959524Y-54354819D01*
X104959524Y-54354819D02*
X105197619Y-54354819D01*
X105197619Y-54354819D02*
X105292857Y-54307200D01*
X105292857Y-54307200D02*
X105340476Y-54259580D01*
X105340476Y-54259580D02*
X105388095Y-54164342D01*
X105388095Y-54164342D02*
X105388095Y-54069104D01*
X105388095Y-54069104D02*
X105340476Y-53973866D01*
X105340476Y-53973866D02*
X105292857Y-53926247D01*
X105292857Y-53926247D02*
X105197619Y-53878628D01*
X105197619Y-53878628D02*
X105007143Y-53831009D01*
X105007143Y-53831009D02*
X104911905Y-53783390D01*
X104911905Y-53783390D02*
X104864286Y-53735771D01*
X104864286Y-53735771D02*
X104816667Y-53640533D01*
X104816667Y-53640533D02*
X104816667Y-53545295D01*
X104816667Y-53545295D02*
X104864286Y-53450057D01*
X104864286Y-53450057D02*
X104911905Y-53402438D01*
X104911905Y-53402438D02*
X105007143Y-53354819D01*
X105007143Y-53354819D02*
X105245238Y-53354819D01*
X105245238Y-53354819D02*
X105388095Y-53402438D01*
X105721429Y-53354819D02*
X105959524Y-54354819D01*
X105959524Y-54354819D02*
X106150000Y-53640533D01*
X106150000Y-53640533D02*
X106340476Y-54354819D01*
X106340476Y-54354819D02*
X106578572Y-53354819D01*
X106911905Y-53450057D02*
X106959524Y-53402438D01*
X106959524Y-53402438D02*
X107054762Y-53354819D01*
X107054762Y-53354819D02*
X107292857Y-53354819D01*
X107292857Y-53354819D02*
X107388095Y-53402438D01*
X107388095Y-53402438D02*
X107435714Y-53450057D01*
X107435714Y-53450057D02*
X107483333Y-53545295D01*
X107483333Y-53545295D02*
X107483333Y-53640533D01*
X107483333Y-53640533D02*
X107435714Y-53783390D01*
X107435714Y-53783390D02*
X106864286Y-54354819D01*
X106864286Y-54354819D02*
X107483333Y-54354819D01*
X88538095Y-62254819D02*
X88538095Y-63064342D01*
X88538095Y-63064342D02*
X88585714Y-63159580D01*
X88585714Y-63159580D02*
X88633333Y-63207200D01*
X88633333Y-63207200D02*
X88728571Y-63254819D01*
X88728571Y-63254819D02*
X88919047Y-63254819D01*
X88919047Y-63254819D02*
X89014285Y-63207200D01*
X89014285Y-63207200D02*
X89061904Y-63159580D01*
X89061904Y-63159580D02*
X89109523Y-63064342D01*
X89109523Y-63064342D02*
X89109523Y-62254819D01*
X90109523Y-63254819D02*
X89538095Y-63254819D01*
X89823809Y-63254819D02*
X89823809Y-62254819D01*
X89823809Y-62254819D02*
X89728571Y-62397676D01*
X89728571Y-62397676D02*
X89633333Y-62492914D01*
X89633333Y-62492914D02*
X89538095Y-62540533D01*
X76833333Y-57654819D02*
X76500000Y-57178628D01*
X76261905Y-57654819D02*
X76261905Y-56654819D01*
X76261905Y-56654819D02*
X76642857Y-56654819D01*
X76642857Y-56654819D02*
X76738095Y-56702438D01*
X76738095Y-56702438D02*
X76785714Y-56750057D01*
X76785714Y-56750057D02*
X76833333Y-56845295D01*
X76833333Y-56845295D02*
X76833333Y-56988152D01*
X76833333Y-56988152D02*
X76785714Y-57083390D01*
X76785714Y-57083390D02*
X76738095Y-57131009D01*
X76738095Y-57131009D02*
X76642857Y-57178628D01*
X76642857Y-57178628D02*
X76261905Y-57178628D01*
X77404762Y-57083390D02*
X77309524Y-57035771D01*
X77309524Y-57035771D02*
X77261905Y-56988152D01*
X77261905Y-56988152D02*
X77214286Y-56892914D01*
X77214286Y-56892914D02*
X77214286Y-56845295D01*
X77214286Y-56845295D02*
X77261905Y-56750057D01*
X77261905Y-56750057D02*
X77309524Y-56702438D01*
X77309524Y-56702438D02*
X77404762Y-56654819D01*
X77404762Y-56654819D02*
X77595238Y-56654819D01*
X77595238Y-56654819D02*
X77690476Y-56702438D01*
X77690476Y-56702438D02*
X77738095Y-56750057D01*
X77738095Y-56750057D02*
X77785714Y-56845295D01*
X77785714Y-56845295D02*
X77785714Y-56892914D01*
X77785714Y-56892914D02*
X77738095Y-56988152D01*
X77738095Y-56988152D02*
X77690476Y-57035771D01*
X77690476Y-57035771D02*
X77595238Y-57083390D01*
X77595238Y-57083390D02*
X77404762Y-57083390D01*
X77404762Y-57083390D02*
X77309524Y-57131009D01*
X77309524Y-57131009D02*
X77261905Y-57178628D01*
X77261905Y-57178628D02*
X77214286Y-57273866D01*
X77214286Y-57273866D02*
X77214286Y-57464342D01*
X77214286Y-57464342D02*
X77261905Y-57559580D01*
X77261905Y-57559580D02*
X77309524Y-57607200D01*
X77309524Y-57607200D02*
X77404762Y-57654819D01*
X77404762Y-57654819D02*
X77595238Y-57654819D01*
X77595238Y-57654819D02*
X77690476Y-57607200D01*
X77690476Y-57607200D02*
X77738095Y-57559580D01*
X77738095Y-57559580D02*
X77785714Y-57464342D01*
X77785714Y-57464342D02*
X77785714Y-57273866D01*
X77785714Y-57273866D02*
X77738095Y-57178628D01*
X77738095Y-57178628D02*
X77690476Y-57131009D01*
X77690476Y-57131009D02*
X77595238Y-57083390D01*
X78733333Y-57654819D02*
X78400000Y-57178628D01*
X78161905Y-57654819D02*
X78161905Y-56654819D01*
X78161905Y-56654819D02*
X78542857Y-56654819D01*
X78542857Y-56654819D02*
X78638095Y-56702438D01*
X78638095Y-56702438D02*
X78685714Y-56750057D01*
X78685714Y-56750057D02*
X78733333Y-56845295D01*
X78733333Y-56845295D02*
X78733333Y-56988152D01*
X78733333Y-56988152D02*
X78685714Y-57083390D01*
X78685714Y-57083390D02*
X78638095Y-57131009D01*
X78638095Y-57131009D02*
X78542857Y-57178628D01*
X78542857Y-57178628D02*
X78161905Y-57178628D01*
X79590476Y-56988152D02*
X79590476Y-57654819D01*
X79352381Y-56607200D02*
X79114286Y-57321485D01*
X79114286Y-57321485D02*
X79733333Y-57321485D01*
X98304761Y-57750057D02*
X98209523Y-57702438D01*
X98209523Y-57702438D02*
X98114285Y-57607200D01*
X98114285Y-57607200D02*
X97971428Y-57464342D01*
X97971428Y-57464342D02*
X97876190Y-57416723D01*
X97876190Y-57416723D02*
X97780952Y-57416723D01*
X97828571Y-57654819D02*
X97733333Y-57607200D01*
X97733333Y-57607200D02*
X97638095Y-57511961D01*
X97638095Y-57511961D02*
X97590476Y-57321485D01*
X97590476Y-57321485D02*
X97590476Y-56988152D01*
X97590476Y-56988152D02*
X97638095Y-56797676D01*
X97638095Y-56797676D02*
X97733333Y-56702438D01*
X97733333Y-56702438D02*
X97828571Y-56654819D01*
X97828571Y-56654819D02*
X98019047Y-56654819D01*
X98019047Y-56654819D02*
X98114285Y-56702438D01*
X98114285Y-56702438D02*
X98209523Y-56797676D01*
X98209523Y-56797676D02*
X98257142Y-56988152D01*
X98257142Y-56988152D02*
X98257142Y-57321485D01*
X98257142Y-57321485D02*
X98209523Y-57511961D01*
X98209523Y-57511961D02*
X98114285Y-57607200D01*
X98114285Y-57607200D02*
X98019047Y-57654819D01*
X98019047Y-57654819D02*
X97828571Y-57654819D01*
X99209523Y-57654819D02*
X98638095Y-57654819D01*
X98923809Y-57654819D02*
X98923809Y-56654819D01*
X98923809Y-56654819D02*
X98828571Y-56797676D01*
X98828571Y-56797676D02*
X98733333Y-56892914D01*
X98733333Y-56892914D02*
X98638095Y-56940533D01*
X107833333Y-58254819D02*
X107500000Y-57778628D01*
X107261905Y-58254819D02*
X107261905Y-57254819D01*
X107261905Y-57254819D02*
X107642857Y-57254819D01*
X107642857Y-57254819D02*
X107738095Y-57302438D01*
X107738095Y-57302438D02*
X107785714Y-57350057D01*
X107785714Y-57350057D02*
X107833333Y-57445295D01*
X107833333Y-57445295D02*
X107833333Y-57588152D01*
X107833333Y-57588152D02*
X107785714Y-57683390D01*
X107785714Y-57683390D02*
X107738095Y-57731009D01*
X107738095Y-57731009D02*
X107642857Y-57778628D01*
X107642857Y-57778628D02*
X107261905Y-57778628D01*
X108785714Y-58254819D02*
X108214286Y-58254819D01*
X108500000Y-58254819D02*
X108500000Y-57254819D01*
X108500000Y-57254819D02*
X108404762Y-57397676D01*
X108404762Y-57397676D02*
X108309524Y-57492914D01*
X108309524Y-57492914D02*
X108214286Y-57540533D01*
X82854819Y-58466666D02*
X82378628Y-58799999D01*
X82854819Y-59038094D02*
X81854819Y-59038094D01*
X81854819Y-59038094D02*
X81854819Y-58657142D01*
X81854819Y-58657142D02*
X81902438Y-58561904D01*
X81902438Y-58561904D02*
X81950057Y-58514285D01*
X81950057Y-58514285D02*
X82045295Y-58466666D01*
X82045295Y-58466666D02*
X82188152Y-58466666D01*
X82188152Y-58466666D02*
X82283390Y-58514285D01*
X82283390Y-58514285D02*
X82331009Y-58561904D01*
X82331009Y-58561904D02*
X82378628Y-58657142D01*
X82378628Y-58657142D02*
X82378628Y-59038094D01*
X81854819Y-57561904D02*
X81854819Y-58038094D01*
X81854819Y-58038094D02*
X82331009Y-58085713D01*
X82331009Y-58085713D02*
X82283390Y-58038094D01*
X82283390Y-58038094D02*
X82235771Y-57942856D01*
X82235771Y-57942856D02*
X82235771Y-57704761D01*
X82235771Y-57704761D02*
X82283390Y-57609523D01*
X82283390Y-57609523D02*
X82331009Y-57561904D01*
X82331009Y-57561904D02*
X82426247Y-57514285D01*
X82426247Y-57514285D02*
X82664342Y-57514285D01*
X82664342Y-57514285D02*
X82759580Y-57561904D01*
X82759580Y-57561904D02*
X82807200Y-57609523D01*
X82807200Y-57609523D02*
X82854819Y-57704761D01*
X82854819Y-57704761D02*
X82854819Y-57942856D01*
X82854819Y-57942856D02*
X82807200Y-58038094D01*
X82807200Y-58038094D02*
X82759580Y-58085713D01*
X97654819Y-66466666D02*
X97178628Y-66799999D01*
X97654819Y-67038094D02*
X96654819Y-67038094D01*
X96654819Y-67038094D02*
X96654819Y-66657142D01*
X96654819Y-66657142D02*
X96702438Y-66561904D01*
X96702438Y-66561904D02*
X96750057Y-66514285D01*
X96750057Y-66514285D02*
X96845295Y-66466666D01*
X96845295Y-66466666D02*
X96988152Y-66466666D01*
X96988152Y-66466666D02*
X97083390Y-66514285D01*
X97083390Y-66514285D02*
X97131009Y-66561904D01*
X97131009Y-66561904D02*
X97178628Y-66657142D01*
X97178628Y-66657142D02*
X97178628Y-67038094D01*
X96750057Y-66085713D02*
X96702438Y-66038094D01*
X96702438Y-66038094D02*
X96654819Y-65942856D01*
X96654819Y-65942856D02*
X96654819Y-65704761D01*
X96654819Y-65704761D02*
X96702438Y-65609523D01*
X96702438Y-65609523D02*
X96750057Y-65561904D01*
X96750057Y-65561904D02*
X96845295Y-65514285D01*
X96845295Y-65514285D02*
X96940533Y-65514285D01*
X96940533Y-65514285D02*
X97083390Y-65561904D01*
X97083390Y-65561904D02*
X97654819Y-66133332D01*
X97654819Y-66133332D02*
X97654819Y-65514285D01*
X77633333Y-63554819D02*
X77300000Y-63078628D01*
X77061905Y-63554819D02*
X77061905Y-62554819D01*
X77061905Y-62554819D02*
X77442857Y-62554819D01*
X77442857Y-62554819D02*
X77538095Y-62602438D01*
X77538095Y-62602438D02*
X77585714Y-62650057D01*
X77585714Y-62650057D02*
X77633333Y-62745295D01*
X77633333Y-62745295D02*
X77633333Y-62888152D01*
X77633333Y-62888152D02*
X77585714Y-62983390D01*
X77585714Y-62983390D02*
X77538095Y-63031009D01*
X77538095Y-63031009D02*
X77442857Y-63078628D01*
X77442857Y-63078628D02*
X77061905Y-63078628D01*
X77966667Y-62554819D02*
X78633333Y-62554819D01*
X78633333Y-62554819D02*
X78204762Y-63554819D01*
X90633333Y-68359580D02*
X90585714Y-68407200D01*
X90585714Y-68407200D02*
X90442857Y-68454819D01*
X90442857Y-68454819D02*
X90347619Y-68454819D01*
X90347619Y-68454819D02*
X90204762Y-68407200D01*
X90204762Y-68407200D02*
X90109524Y-68311961D01*
X90109524Y-68311961D02*
X90061905Y-68216723D01*
X90061905Y-68216723D02*
X90014286Y-68026247D01*
X90014286Y-68026247D02*
X90014286Y-67883390D01*
X90014286Y-67883390D02*
X90061905Y-67692914D01*
X90061905Y-67692914D02*
X90109524Y-67597676D01*
X90109524Y-67597676D02*
X90204762Y-67502438D01*
X90204762Y-67502438D02*
X90347619Y-67454819D01*
X90347619Y-67454819D02*
X90442857Y-67454819D01*
X90442857Y-67454819D02*
X90585714Y-67502438D01*
X90585714Y-67502438D02*
X90633333Y-67550057D01*
X91585714Y-68454819D02*
X91014286Y-68454819D01*
X91300000Y-68454819D02*
X91300000Y-67454819D01*
X91300000Y-67454819D02*
X91204762Y-67597676D01*
X91204762Y-67597676D02*
X91109524Y-67692914D01*
X91109524Y-67692914D02*
X91014286Y-67740533D01*
X99461905Y-54354819D02*
X99461905Y-53354819D01*
X99461905Y-53354819D02*
X99700000Y-53354819D01*
X99700000Y-53354819D02*
X99842857Y-53402438D01*
X99842857Y-53402438D02*
X99938095Y-53497676D01*
X99938095Y-53497676D02*
X99985714Y-53592914D01*
X99985714Y-53592914D02*
X100033333Y-53783390D01*
X100033333Y-53783390D02*
X100033333Y-53926247D01*
X100033333Y-53926247D02*
X99985714Y-54116723D01*
X99985714Y-54116723D02*
X99938095Y-54211961D01*
X99938095Y-54211961D02*
X99842857Y-54307200D01*
X99842857Y-54307200D02*
X99700000Y-54354819D01*
X99700000Y-54354819D02*
X99461905Y-54354819D01*
X100985714Y-54354819D02*
X100414286Y-54354819D01*
X100700000Y-54354819D02*
X100700000Y-53354819D01*
X100700000Y-53354819D02*
X100604762Y-53497676D01*
X100604762Y-53497676D02*
X100509524Y-53592914D01*
X100509524Y-53592914D02*
X100414286Y-53640533D01*
X100454819Y-64651904D02*
X101264342Y-64651904D01*
X101264342Y-64651904D02*
X101359580Y-64604285D01*
X101359580Y-64604285D02*
X101407200Y-64556666D01*
X101407200Y-64556666D02*
X101454819Y-64461428D01*
X101454819Y-64461428D02*
X101454819Y-64270952D01*
X101454819Y-64270952D02*
X101407200Y-64175714D01*
X101407200Y-64175714D02*
X101359580Y-64128095D01*
X101359580Y-64128095D02*
X101264342Y-64080476D01*
X101264342Y-64080476D02*
X100454819Y-64080476D01*
X100550057Y-63651904D02*
X100502438Y-63604285D01*
X100502438Y-63604285D02*
X100454819Y-63509047D01*
X100454819Y-63509047D02*
X100454819Y-63270952D01*
X100454819Y-63270952D02*
X100502438Y-63175714D01*
X100502438Y-63175714D02*
X100550057Y-63128095D01*
X100550057Y-63128095D02*
X100645295Y-63080476D01*
X100645295Y-63080476D02*
X100740533Y-63080476D01*
X100740533Y-63080476D02*
X100883390Y-63128095D01*
X100883390Y-63128095D02*
X101454819Y-63699523D01*
X101454819Y-63699523D02*
X101454819Y-63080476D01*
X86166666Y-59554819D02*
X86166666Y-60269104D01*
X86166666Y-60269104D02*
X86119047Y-60411961D01*
X86119047Y-60411961D02*
X86023809Y-60507200D01*
X86023809Y-60507200D02*
X85880952Y-60554819D01*
X85880952Y-60554819D02*
X85785714Y-60554819D01*
X87166666Y-60554819D02*
X86595238Y-60554819D01*
X86880952Y-60554819D02*
X86880952Y-59554819D01*
X86880952Y-59554819D02*
X86785714Y-59697676D01*
X86785714Y-59697676D02*
X86690476Y-59792914D01*
X86690476Y-59792914D02*
X86595238Y-59840533D01*
X71333333Y-57559580D02*
X71285714Y-57607200D01*
X71285714Y-57607200D02*
X71142857Y-57654819D01*
X71142857Y-57654819D02*
X71047619Y-57654819D01*
X71047619Y-57654819D02*
X70904762Y-57607200D01*
X70904762Y-57607200D02*
X70809524Y-57511961D01*
X70809524Y-57511961D02*
X70761905Y-57416723D01*
X70761905Y-57416723D02*
X70714286Y-57226247D01*
X70714286Y-57226247D02*
X70714286Y-57083390D01*
X70714286Y-57083390D02*
X70761905Y-56892914D01*
X70761905Y-56892914D02*
X70809524Y-56797676D01*
X70809524Y-56797676D02*
X70904762Y-56702438D01*
X70904762Y-56702438D02*
X71047619Y-56654819D01*
X71047619Y-56654819D02*
X71142857Y-56654819D01*
X71142857Y-56654819D02*
X71285714Y-56702438D01*
X71285714Y-56702438D02*
X71333333Y-56750057D01*
X72190476Y-56654819D02*
X72000000Y-56654819D01*
X72000000Y-56654819D02*
X71904762Y-56702438D01*
X71904762Y-56702438D02*
X71857143Y-56750057D01*
X71857143Y-56750057D02*
X71761905Y-56892914D01*
X71761905Y-56892914D02*
X71714286Y-57083390D01*
X71714286Y-57083390D02*
X71714286Y-57464342D01*
X71714286Y-57464342D02*
X71761905Y-57559580D01*
X71761905Y-57559580D02*
X71809524Y-57607200D01*
X71809524Y-57607200D02*
X71904762Y-57654819D01*
X71904762Y-57654819D02*
X72095238Y-57654819D01*
X72095238Y-57654819D02*
X72190476Y-57607200D01*
X72190476Y-57607200D02*
X72238095Y-57559580D01*
X72238095Y-57559580D02*
X72285714Y-57464342D01*
X72285714Y-57464342D02*
X72285714Y-57226247D01*
X72285714Y-57226247D02*
X72238095Y-57131009D01*
X72238095Y-57131009D02*
X72190476Y-57083390D01*
X72190476Y-57083390D02*
X72095238Y-57035771D01*
X72095238Y-57035771D02*
X71904762Y-57035771D01*
X71904762Y-57035771D02*
X71809524Y-57083390D01*
X71809524Y-57083390D02*
X71761905Y-57131009D01*
X71761905Y-57131009D02*
X71714286Y-57226247D01*
X97354819Y-68266666D02*
X96878628Y-68599999D01*
X97354819Y-68838094D02*
X96354819Y-68838094D01*
X96354819Y-68838094D02*
X96354819Y-68457142D01*
X96354819Y-68457142D02*
X96402438Y-68361904D01*
X96402438Y-68361904D02*
X96450057Y-68314285D01*
X96450057Y-68314285D02*
X96545295Y-68266666D01*
X96545295Y-68266666D02*
X96688152Y-68266666D01*
X96688152Y-68266666D02*
X96783390Y-68314285D01*
X96783390Y-68314285D02*
X96831009Y-68361904D01*
X96831009Y-68361904D02*
X96878628Y-68457142D01*
X96878628Y-68457142D02*
X96878628Y-68838094D01*
X96354819Y-67933332D02*
X96354819Y-67314285D01*
X96354819Y-67314285D02*
X96735771Y-67647618D01*
X96735771Y-67647618D02*
X96735771Y-67504761D01*
X96735771Y-67504761D02*
X96783390Y-67409523D01*
X96783390Y-67409523D02*
X96831009Y-67361904D01*
X96831009Y-67361904D02*
X96926247Y-67314285D01*
X96926247Y-67314285D02*
X97164342Y-67314285D01*
X97164342Y-67314285D02*
X97259580Y-67361904D01*
X97259580Y-67361904D02*
X97307200Y-67409523D01*
X97307200Y-67409523D02*
X97354819Y-67504761D01*
X97354819Y-67504761D02*
X97354819Y-67790475D01*
X97354819Y-67790475D02*
X97307200Y-67885713D01*
X97307200Y-67885713D02*
X97259580Y-67933332D01*
D12*
%TO.C,BT2*%
X82000000Y-52700000D02*
X82000000Y-53140000D01*
X82000000Y-55860000D02*
X82000000Y-56300000D01*
X82000000Y-56300000D02*
X87850000Y-56300000D01*
X83690000Y-52700000D02*
X82000000Y-52700000D01*
X83690000Y-52700000D02*
X83690000Y-50900000D01*
X86160000Y-52700000D02*
X87850000Y-52700000D01*
X87850000Y-52700000D02*
X87850000Y-53140000D01*
X87850000Y-56300000D02*
X87850000Y-55860000D01*
%TO.C,D2*%
X94765000Y-65372500D02*
X96235000Y-65372500D01*
X96235000Y-65372500D02*
X96235000Y-63087500D01*
X94765000Y-63087500D02*
X94765000Y-65372500D01*
%TO.C,SW3*%
X94810000Y-58770000D02*
X89670000Y-58770000D01*
X94810000Y-58770000D02*
X94810000Y-61430000D01*
X89670000Y-58770000D02*
X89670000Y-61430000D01*
X97410000Y-60100000D02*
X97410000Y-61430000D01*
X97410000Y-61430000D02*
X96080000Y-61430000D01*
X94810000Y-61430000D02*
X89670000Y-61430000D01*
%TO.C,C3*%
X92537258Y-51622500D02*
X92062742Y-51622500D01*
X92537258Y-50577500D02*
X92062742Y-50577500D01*
%TO.C,U3*%
X75810000Y-61100000D02*
X75810000Y-59300000D01*
X72590000Y-60100000D02*
X72590000Y-60900000D01*
X72590000Y-60100000D02*
X72590000Y-59300000D01*
X72640000Y-61400000D02*
X72310000Y-61640000D01*
X72310000Y-61160000D01*
X72640000Y-61400000D01*
G36*
X72640000Y-61400000D02*
G01*
X72310000Y-61640000D01*
X72310000Y-61160000D01*
X72640000Y-61400000D01*
G37*
%TO.C,C7*%
X76310000Y-64359420D02*
X76310000Y-64640580D01*
X75290000Y-64359420D02*
X75290000Y-64640580D01*
%TO.C,C2*%
X94210000Y-63684420D02*
X94210000Y-63965580D01*
X93190000Y-63684420D02*
X93190000Y-63965580D01*
%TO.C,C4*%
X92537258Y-53222500D02*
X92062742Y-53222500D01*
X92537258Y-52177500D02*
X92062742Y-52177500D01*
%TO.C,SW1*%
X78290000Y-64340000D02*
X87110000Y-64340000D01*
X78290000Y-64650000D02*
X78290000Y-64340000D01*
X78290000Y-68860000D02*
X78290000Y-68550000D01*
X80200000Y-63640000D02*
X80700000Y-64140000D01*
X80700000Y-64140000D02*
X81200000Y-63640000D01*
X81200000Y-63640000D02*
X80200000Y-63640000D01*
X87110000Y-64340000D02*
X87110000Y-64650000D01*
X87110000Y-68860000D02*
X78290000Y-68860000D01*
X87110000Y-68860000D02*
X87110000Y-68550000D01*
%TO.C,D3*%
X81135000Y-60815000D02*
X79665000Y-60815000D01*
X79665000Y-60815000D02*
X79665000Y-63100000D01*
X81135000Y-63100000D02*
X81135000Y-60815000D01*
%TO.C,R6*%
X73162742Y-63077500D02*
X73637258Y-63077500D01*
X73162742Y-64122500D02*
X73637258Y-64122500D01*
%TO.C,SW2*%
X105830000Y-50470000D02*
X103230000Y-50470000D01*
X105830000Y-50470000D02*
X105830000Y-53130000D01*
X103230000Y-50470000D02*
X103230000Y-53130000D01*
X108430000Y-51800000D02*
X108430000Y-53130000D01*
X108430000Y-53130000D02*
X107100000Y-53130000D01*
X105830000Y-53130000D02*
X103230000Y-53130000D01*
%TO.C,U1*%
X90800000Y-65460000D02*
X91450000Y-65460000D01*
X90800000Y-65460000D02*
X90150000Y-65460000D01*
X90800000Y-62340000D02*
X91450000Y-62340000D01*
X90800000Y-62340000D02*
X90150000Y-62340000D01*
X92202500Y-65740000D02*
X91722500Y-65740000D01*
X91962500Y-65410000D01*
X92202500Y-65740000D01*
G36*
X92202500Y-65740000D02*
G01*
X91722500Y-65740000D01*
X91962500Y-65410000D01*
X92202500Y-65740000D01*
G37*
%TO.C,R8*%
X76477500Y-59537258D02*
X76477500Y-59062742D01*
X77522500Y-59537258D02*
X77522500Y-59062742D01*
%TO.C,R4*%
X79222500Y-59062742D02*
X79222500Y-59537258D01*
X78177500Y-59062742D02*
X78177500Y-59537258D01*
%TO.C,Q1*%
X101262500Y-58710000D02*
X101912500Y-58710000D01*
X101262500Y-58710000D02*
X100612500Y-58710000D01*
X101262500Y-55590000D02*
X101912500Y-55590000D01*
X101262500Y-55590000D02*
X100612500Y-55590000D01*
X102665000Y-58990000D02*
X102185000Y-58990000D01*
X102425000Y-58660000D01*
X102665000Y-58990000D01*
G36*
X102665000Y-58990000D02*
G01*
X102185000Y-58990000D01*
X102425000Y-58660000D01*
X102665000Y-58990000D01*
G37*
%TO.C,R1*%
X105837258Y-58322500D02*
X105362742Y-58322500D01*
X105837258Y-57277500D02*
X105362742Y-57277500D01*
%TO.C,R5*%
X81522500Y-58062742D02*
X81522500Y-58537258D01*
X80477500Y-58062742D02*
X80477500Y-58537258D01*
%TO.C,R2*%
X97722500Y-63662742D02*
X97722500Y-64137258D01*
X96677500Y-63662742D02*
X96677500Y-64137258D01*
%TO.C,R7*%
X77562742Y-61077500D02*
X78037258Y-61077500D01*
X77562742Y-62122500D02*
X78037258Y-62122500D01*
%TO.C,C1*%
X90659420Y-66090000D02*
X90940580Y-66090000D01*
X90659420Y-67110000D02*
X90940580Y-67110000D01*
%TO.C,D1*%
X98930000Y-50495000D02*
X96330000Y-50495000D01*
X98930000Y-50495000D02*
X98930000Y-53155000D01*
X96330000Y-50495000D02*
X96330000Y-53155000D01*
X101530000Y-51825000D02*
X101530000Y-53155000D01*
X101530000Y-53155000D02*
X100200000Y-53155000D01*
X98930000Y-53155000D02*
X96330000Y-53155000D01*
%TO.C,U2*%
X98170000Y-66540000D02*
X108450000Y-66540000D01*
X108450000Y-66540000D02*
X108450000Y-61240000D01*
X98170000Y-64890000D02*
X98170000Y-66540000D01*
X98170000Y-61240000D02*
X98170000Y-62890000D01*
X108450000Y-61240000D02*
X98170000Y-61240000D01*
X98170000Y-64890000D02*
G75*
G03*
X98170000Y-62890000I0J1000000D01*
G01*
%TO.C,J1*%
X85120000Y-63405000D02*
X87720000Y-63405000D01*
X85120000Y-63405000D02*
X85120000Y-60745000D01*
X87720000Y-63405000D02*
X87720000Y-60745000D01*
X82520000Y-62075000D02*
X82520000Y-60745000D01*
X82520000Y-60745000D02*
X83850000Y-60745000D01*
X85120000Y-60745000D02*
X87720000Y-60745000D01*
%TO.C,C6*%
X72010000Y-59159420D02*
X72010000Y-59440580D01*
X70990000Y-59159420D02*
X70990000Y-59440580D01*
%TO.C,J3*%
X70180000Y-51480000D02*
X70180000Y-51980000D01*
X70180000Y-51480000D02*
X70680000Y-51480000D01*
X70330000Y-51630000D02*
X70330000Y-52530000D01*
X70330000Y-51630000D02*
X71130000Y-51630000D01*
X70330000Y-55670000D02*
X70330000Y-54770000D01*
X70330000Y-55670000D02*
X71130000Y-55670000D01*
X78870000Y-51630000D02*
X78070000Y-51630000D01*
X78870000Y-51630000D02*
X78870000Y-52530000D01*
X78870000Y-55670000D02*
X78070000Y-55670000D01*
X78870000Y-55670000D02*
X78870000Y-54770000D01*
%TO.C,R3*%
X96022500Y-66862742D02*
X96022500Y-67337258D01*
X94977500Y-66862742D02*
X94977500Y-67337258D01*
%TD*%
M02*
