M48
; DRILL file {KiCad 7.0.11-2.fc38} date mer 24 apr 2024, 16:28:25
; FORMAT={-:-/ absolute / inch / decimal}
; #@! TF.CreationDate,2024-04-24T16:28:25+02:00
; #@! TF.GenerationSoftware,Kicad,Pcbnew,7.0.11-2.fc38
; #@! TF.FileFunction,Plated,1,2,PTH
FMAT,2
INCH
; #@! TA.AperFunction,Plated,PTH,ViaDrill
T1C0.0118
; #@! TA.AperFunction,Plated,PTH,ComponentDrill
T2C0.0276
; #@! TA.AperFunction,Plated,PTH,ComponentDrill
T3C0.0315
; #@! TA.AperFunction,Plated,PTH,ComponentDrill
T4C0.0394
; #@! TA.AperFunction,Plated,PTH,ComponentDrill
T5C0.0591
%
G90
G05
T1
X2.9331Y-2.2559
X2.937Y-2.6102
X3.1299Y-2.2008
X3.2047Y-2.378
X3.4488Y-2.3425
X3.4882Y-2.2677
X3.4961Y-2.4173
X3.5315Y-2.0315
X3.7008Y-2.6693
X4.0472Y-2.1614
X4.126Y-2.1929
X4.2126Y-2.189
X4.2283Y-2.5472
T2
X2.8425Y-2.0276
X2.8425Y-2.1969
X3.0315Y-2.0276
X3.0315Y-2.1969
T3
X3.1772Y-2.622
X3.2559Y-2.622
X3.3346Y-2.622
X3.9173Y-2.3654
X3.9173Y-2.6654
X4.0173Y-2.3654
X4.0173Y-2.6654
X4.1173Y-2.3654
X4.1173Y-2.6654
X4.2173Y-2.3654
X4.2173Y-2.6654
T4
X3.3012Y-2.4439
X3.4012Y-2.4439
X3.5827Y-2.3661
X3.6827Y-2.3661
X3.7827Y-2.3661
X3.8449Y-2.0404
X3.9449Y-2.0404
X4.1165Y-2.0394
X4.2165Y-2.0394
T5
X3.0945Y-2.622
X3.4173Y-2.622
M30
